<svg enable-background="new 0 0 2000 2000" viewBox="0 0 2000 2000" xmlns="http://www.w3.org/2000/svg" xmlns:xlink="http://www.w3.org/1999/xlink"><linearGradient id="a"><stop offset=".0005040322" stop-color="#a18ce3"/><stop offset=".1326" stop-color="#a18ce3" stop-opacity=".8674"/><stop offset="1" stop-color="#a18ce3" stop-opacity="0"/></linearGradient><linearGradient id="b" gradientUnits="userSpaceOnUse" x1="2132.0508" x2="1019.1431" xlink:href="#a" y1="-817.9235" y2="945.5445"/><linearGradient id="c" gradientUnits="userSpaceOnUse" x1="1529.5007" x2="1287.5723" xlink:href="#a" y1="135.6133" y2="744.7545"/><linearGradient id="d" gradientUnits="userSpaceOnUse" x1="1617.1172" x2="1420.2102" xlink:href="#a" y1="108.7334" y2="604.517"/><linearGradient id="e" gradientUnits="userSpaceOnUse" x1="55.0553" x2="1364.105" xlink:href="#a" y1="3041.4893" y2="423.3902"/><linearGradient id="f" gradientUnits="userSpaceOnUse" x1="658.2418" x2="1297.2476" xlink:href="#a" y1="1683.7895" y2="751.6618"/><linearGradient id="g" gradientUnits="userSpaceOnUse" x1="816.7501" x2="154.8576" xlink:href="#a" y1="1183.1743" y2="2760.6851"/><linearGradient id="h" gradientUnits="userSpaceOnUse" x1="39.8212" x2="1218.2889" y1="39.8212" y2="1218.2889"><stop offset=".003149537" stop-color="#a18ce3"/><stop offset="1" stop-color="#a18ce3" stop-opacity="0"/></linearGradient><linearGradient id="i"><stop offset="0" stop-color="#a18ce3" stop-opacity="0"/><stop offset=".9969" stop-color="#a18ce3"/></linearGradient><linearGradient id="j" gradientUnits="userSpaceOnUse" x1="1377.7057" x2="1634.0942" xlink:href="#i" y1="983.6" y2="983.6"/><linearGradient id="k" gradientUnits="userSpaceOnUse" x1="1118.1564" x2="1363.0436" y1="738.6" y2="738.6"><stop offset=".00004133598" stop-color="#ef4423" stop-opacity="0"/><stop offset="1" stop-color="#ee4323"/></linearGradient><linearGradient id="l" gradientUnits="userSpaceOnUse" x1="1591.407" x2="1788.1931" y1="1284.6" y2="1284.6"><stop offset="0" stop-color="#51c1c3" stop-opacity="0"/><stop offset=".9995" stop-color="#51c1c3"/></linearGradient><linearGradient id="m" gradientUnits="userSpaceOnUse" x1="880.3541" x2="1063.446" y1="1046.1" y2="1046.1"><stop offset=".00004133598" stop-color="#ef4423" stop-opacity="0"/><stop offset="1" stop-color="#ee4323"/><stop offset="1" stop-color="#a18ce3"/></linearGradient><linearGradient id="n" gradientUnits="userSpaceOnUse" x1="509.8034" x2="646.2965" xlink:href="#i" y1="896.55" y2="896.55"/><linearGradient id="o" gradientUnits="userSpaceOnUse" x1="266.5552" x2="418.2448" y1="852.5999" y2="852.5999"><stop offset=".00004133598" stop-color="#b3f0f0" stop-opacity="0"/><stop offset="1" stop-color="#b3f0f0"/></linearGradient><path clip-rule="evenodd" d="m0 0h2000v2000h-2000z" fill="#7adcdc" fill-rule="evenodd"/><path d="m2000 348.4v433.4 139.4c-319.2 46.3-283.4-334.4-488.6-331.2-179.9 2.7-216.7-167.8-224.2-241.6 0 0-24.5-87.7-112.5-83.8s-524.2 41.1-524.2-264.8h1349.5z" fill="url(#b)"/><path d="m856.3-.2s46.6 212.4 260.7 184c126.2-16.7 208.5 43.5 254.8 95.7 25.7 29 43.9 63.8 54 101.2 17.2 63.3 60.5 140.8 169.2 139.2 166.8-2.5 135 312.1 405 261.9v-782z" fill="url(#c)" opacity=".6"/><path d="m1069.2-1.8s38 172.8 212.2 149.8c102.7-13.6 169.7 35.4 207.3 77.9 20.9 23.6 35.7 51.9 44 82.4 14 51.5 49.2 114.6 137.7 113.3 135.7-2.1 109.8 254 329.6 213.2v-636.6z" fill="url(#d)" opacity=".6"/><path d="m-1.4 1201c98.8-63.4 272.8-151.8 373.9-67.2 147 123 11.3 209.3 286.9 208.9 204.5-.2 315.4 52.7 384 196.2 0 0 27 50.6 80.3 53.1 77.8 3.8 445.7 56.3 428.8 408h-1552.7z" fill="url(#e)" opacity=".5"/><path d="m-1.4 1573.9v-305c93.2-61.9 251.2-146.3 336.5-74.9 126.1 105.5-16.7 205.8 219.7 205.5 163.7-.2 292 65.5 355.4 174.3 0 0 28 61.7 89.8 56.6s411.3-6.8 385.6 369.5h-1385.8z" fill="url(#f)" opacity=".5"/><path d="m77.5 1707.4c27.1-65.7 21.5-140.3-14.6-201.6-12.1-20.5-19-44-19-69 0-80.6 71.7-146 160.2-146s160.2 65.4 160.2 146v.6c-.1 17.6 16.4 30.4 33.4 25.9 28.7-7.5 59.3-11.5 91-11.5 110.5 0 207.3 48.9 260.6 122 0 0 64.1 121.4 180.7 123.5 116.6 2 328.5 72.1 221.5 302.7h-1151.7s18.2-148.3 77.7-292.6z" fill="url(#g)" opacity=".5"/><path clip-rule="evenodd" d="m0 0h2000v2000h-2000z" fill="url(#h)" fill-rule="evenodd"/><path d="m1743.6 1308.5c-161.2-77.4-321.2-141-475.8-189-260.3-80.9-510-119.9-742-115.7-91.2 1.6-179.8 10-263.5 24.9-66.9 11.9-130.8 27.9-189.9 47.7-28.5 9.5-53.1 19-73.8 27.7v411.2h1996.2v-75.7c-84.6-47.6-168.5-91.4-251.2-131.1z" fill="none" opacity=".8"/><path d="m1614.6 1012.7s-59.2-21.8-217.4-58.2" style="fill:none;stroke-width:38.9885;stroke-linecap:round;stroke-linejoin:round;stroke-miterlimit:10;stroke:url(#j)"/><path d="m1139.6 732.2s140 5.9 202 12.8" style="fill:none;stroke-width:42.8873;stroke-linecap:round;stroke-linejoin:round;stroke-miterlimit:10;stroke:url(#k)"/><path d="m1764.8 1320.1s-43.4-24.7-150-71" style="fill:none;stroke-width:46.7862;stroke-linecap:round;stroke-linejoin:round;stroke-miterlimit:10;stroke:url(#l)"/><path d="m1049.8 1061.4s-69.9-15.8-155.8-30.6" style="fill:none;stroke-width:27.2919;stroke-linecap:round;stroke-linejoin:round;stroke-miterlimit:10;stroke:url(#m)"/><path d="m634.6 890.9s-50.1 1.4-113.1 11.3" style="fill:none;stroke-width:23.3931;stroke-linecap:round;stroke-linejoin:round;stroke-miterlimit:10;stroke:url(#n)"/><path d="m400.7 831.6s-64.2 20-116.6 42" style="fill:none;stroke-width:35.0896;stroke-linecap:round;stroke-linejoin:round;stroke-miterlimit:10;stroke:url(#o)"/><g fill="#fff"><path clip-rule="evenodd" d="m798.9 1104.8c1 0 1.8.8 1.8 1.8s-.8 1.8-1.8 1.8-1.8-.8-1.8-1.8.8-1.8 1.8-1.8z" fill-rule="evenodd"/><path clip-rule="evenodd" d="m816.9 1097.6c1 0 1.8.8 1.8 1.8s-.8 1.8-1.8 1.8-1.8-.8-1.8-1.8.8-1.8 1.8-1.8z" fill-rule="evenodd"/><path clip-rule="evenodd" d="m829.5 1122.9c2 0 3.6 1.6 3.6 3.6s-1.6 3.6-3.6 3.6-3.6-1.6-3.6-3.6 1.6-3.6 3.6-3.6z" fill-rule="evenodd"/><path clip-rule="evenodd" d="m811.5 1151.7c2 0 3.6 1.6 3.6 3.6s-1.6 3.6-3.6 3.6-3.6-1.6-3.6-3.6 1.6-3.6 3.6-3.6z" fill-rule="evenodd"/><path clip-rule="evenodd" d="m861.9 1173.3c2 0 3.6 1.6 3.6 3.6s-1.6 3.6-3.6 3.6-3.6-1.6-3.6-3.6 1.6-3.6 3.6-3.6z" fill-rule="evenodd"/><path clip-rule="evenodd" d="m1023.9 1227.3c2 0 3.6 1.6 3.6 3.6s-1.6 3.6-3.6 3.6-3.6-1.6-3.6-3.6 1.6-3.6 3.6-3.6z" fill-rule="evenodd"/><path clip-rule="evenodd" d="m1032.9 1184.1c1 0 1.8.8 1.8 1.8s-.8 1.8-1.8 1.8-1.8-.8-1.8-1.8.8-1.8 1.8-1.8z" fill-rule="evenodd"/><path clip-rule="evenodd" d="m995.1 1209.3c2 0 3.6 1.6 3.6 3.6s-1.6 3.6-3.6 3.6-3.6-1.6-3.6-3.6 1.6-3.6 3.6-3.6z" fill-rule="evenodd"/><path clip-rule="evenodd" d="m1322.8 1464.9c2 0 3.6 1.6 3.6 3.6s-1.6 3.6-3.6 3.6-3.6-1.6-3.6-3.6c0-1.9 1.6-3.6 3.6-3.6z" fill-rule="evenodd"/><path clip-rule="evenodd" d="m1189.6 1403.7c2 0 3.6 1.6 3.6 3.6s-1.6 3.6-3.6 3.6-3.6-1.6-3.6-3.6 1.6-3.6 3.6-3.6z" fill-rule="evenodd"/><path clip-rule="evenodd" d="m1222 1400.1c2 0 3.6 1.6 3.6 3.6s-1.6 3.6-3.6 3.6-3.6-1.6-3.6-3.6 1.6-3.6 3.6-3.6z" fill-rule="evenodd"/><path clip-rule="evenodd" d="m1038.3 1425.3c2 0 3.6 1.6 3.6 3.6s-1.6 3.6-3.6 3.6-3.6-1.6-3.6-3.6c0-1.9 1.6-3.6 3.6-3.6z" fill-rule="evenodd"/><path clip-rule="evenodd" d="m1709.9 1194.9c1 0 1.8.8 1.8 1.8s-.8 1.8-1.8 1.8-1.8-.8-1.8-1.8.8-1.8 1.8-1.8z" fill-rule="evenodd"/><path clip-rule="evenodd" d="m1699.1 1169.7c3 0 5.4 2.4 5.4 5.4s-2.4 5.4-5.4 5.4-5.4-2.4-5.4-5.4 2.4-5.4 5.4-5.4z" fill-rule="evenodd"/><path clip-rule="evenodd" d="m1762.1 1176.9c2 0 3.6 1.6 3.6 3.6s-1.6 3.6-3.6 3.6-3.6-1.6-3.6-3.6 1.6-3.6 3.6-3.6z" fill-rule="evenodd"/><path clip-rule="evenodd" d="m1540.7 1007.6c1 0 1.8.8 1.8 1.8s-.8 1.8-1.8 1.8-1.8-.8-1.8-1.8.8-1.8 1.8-1.8z" fill-rule="evenodd"/><path clip-rule="evenodd" d="m1565.9 953.6c3 0 5.4 2.4 5.4 5.4s-2.4 5.4-5.4 5.4-5.4-2.4-5.4-5.4 2.4-5.4 5.4-5.4z" fill-rule="evenodd"/><path clip-rule="evenodd" d="m1614.5 978.8c2 0 3.6 1.6 3.6 3.6s-1.6 3.6-3.6 3.6-3.6-1.6-3.6-3.6 1.6-3.6 3.6-3.6z" fill-rule="evenodd"/><path clip-rule="evenodd" d="m1812.5 899.6c2 0 3.6 1.6 3.6 3.6s-1.6 3.6-3.6 3.6-3.6-1.6-3.6-3.6 1.7-3.6 3.6-3.6z" fill-rule="evenodd"/><path clip-rule="evenodd" d="m1819.8 932c2 0 3.6 1.6 3.6 3.6s-1.6 3.6-3.6 3.6-3.6-1.6-3.6-3.6 1.6-3.6 3.6-3.6z" fill-rule="evenodd"/><path clip-rule="evenodd" d="m1760.3 968c1 0 1.8.8 1.8 1.8s-.8 1.8-1.8 1.8-1.8-.8-1.8-1.8.8-1.8 1.8-1.8z" fill-rule="evenodd"/><path clip-rule="evenodd" d="m1796.3 1047.2c1 0 1.8.8 1.8 1.8s-.8 1.8-1.8 1.8-1.8-.8-1.8-1.8.9-1.8 1.8-1.8z" fill-rule="evenodd"/><path clip-rule="evenodd" d="m1524.5 878c2 0 3.6 1.6 3.6 3.6s-1.6 3.6-3.6 3.6-3.6-1.6-3.6-3.6 1.6-3.6 3.6-3.6z" fill-rule="evenodd"/><path clip-rule="evenodd" d="m1432.6 744.7c1 0 1.8.8 1.8 1.8s-.8 1.8-1.8 1.8-1.8-.8-1.8-1.8.8-1.8 1.8-1.8z" fill-rule="evenodd"/><path clip-rule="evenodd" d="m1427.2 719.5c2 0 3.6 1.6 3.6 3.6s-1.6 3.6-3.6 3.6-3.6-1.6-3.6-3.6 1.6-3.6 3.6-3.6z" fill-rule="evenodd"/><path clip-rule="evenodd" d="m1466.9 561.1c2 0 3.6 1.6 3.6 3.6s-1.6 3.6-3.6 3.6-3.6-1.6-3.6-3.6c-.1-2 1.6-3.6 3.6-3.6z" fill-rule="evenodd"/><path clip-rule="evenodd" d="m1470.5 539.5c2 0 3.6 1.6 3.6 3.6s-1.6 3.6-3.6 3.6-3.6-1.6-3.6-3.6 1.6-3.6 3.6-3.6z" fill-rule="evenodd"/><path clip-rule="evenodd" d="m1416.4 528.7c2 0 3.6 1.6 3.6 3.6s-1.6 3.6-3.6 3.6-3.6-1.6-3.6-3.6 1.6-3.6 3.6-3.6z" fill-rule="evenodd"/><path clip-rule="evenodd" d="m1436.2 503.5c1 0 1.8.8 1.8 1.8s-.8 1.8-1.8 1.8-1.8-.8-1.8-1.8.8-1.8 1.8-1.8z" fill-rule="evenodd"/><path clip-rule="evenodd" d="m906.9 694.3c3 0 5.4 2.4 5.4 5.4s-2.4 5.4-5.4 5.4-5.4-2.4-5.4-5.4 2.4-5.4 5.4-5.4z" fill-rule="evenodd"/><path clip-rule="evenodd" d="m930.3 679.9c2 0 3.6 1.6 3.6 3.6s-1.6 3.6-3.6 3.6-3.6-1.6-3.6-3.6 1.6-3.6 3.6-3.6z" fill-rule="evenodd"/><path clip-rule="evenodd" d="m818.7 788c2 0 3.6 1.6 3.6 3.6s-1.6 3.6-3.6 3.6-3.6-1.6-3.6-3.6 1.6-3.6 3.6-3.6z" fill-rule="evenodd"/><path clip-rule="evenodd" d="m865.5 798.8c2 0 3.6 1.6 3.6 3.6s-1.6 3.6-3.6 3.6-3.6-1.6-3.6-3.6 1.6-3.6 3.6-3.6z" fill-rule="evenodd"/><path clip-rule="evenodd" d="m887.1 759.1c2 0 3.6 1.6 3.6 3.6s-1.6 3.6-3.6 3.6-3.6-1.6-3.6-3.6c0-1.9 1.6-3.6 3.6-3.6z" fill-rule="evenodd"/><path clip-rule="evenodd" d="m838.5 935.6c1 0 1.8.8 1.8 1.8s-.8 1.8-1.8 1.8-1.8-.8-1.8-1.8.8-1.8 1.8-1.8z" fill-rule="evenodd"/><path clip-rule="evenodd" d="m728.6 730.3c2 0 3.6 1.6 3.6 3.6s-1.6 3.6-3.6 3.6-3.6-1.6-3.6-3.6c0-1.9 1.6-3.6 3.6-3.6z" fill-rule="evenodd"/><path clip-rule="evenodd" d="m579.2 550.3c3 0 5.4 2.4 5.4 5.4s-2.4 5.4-5.4 5.4-5.4-2.4-5.4-5.4 2.4-5.4 5.4-5.4z" fill-rule="evenodd"/><path clip-rule="evenodd" d="m606.2 528.7c2 0 3.6 1.6 3.6 3.6s-1.6 3.6-3.6 3.6-3.6-1.6-3.6-3.6 1.6-3.6 3.6-3.6z" fill-rule="evenodd"/><path clip-rule="evenodd" d="m627.8 568.3c2 0 3.6 1.6 3.6 3.6s-1.6 3.6-3.6 3.6-3.6-1.6-3.6-3.6 1.6-3.6 3.6-3.6z" fill-rule="evenodd"/><path clip-rule="evenodd" d="m692.6 503.5c2 0 3.6 1.6 3.6 3.6s-1.6 3.6-3.6 3.6-3.6-1.6-3.6-3.6 1.6-3.6 3.6-3.6z" fill-rule="evenodd"/><path clip-rule="evenodd" d="m489.2 438.7c3 0 5.4 2.4 5.4 5.4s-2.4 5.4-5.4 5.4-5.4-2.4-5.4-5.4 2.4-5.4 5.4-5.4z" fill-rule="evenodd"/><path clip-rule="evenodd" d="m462.2 481.9c2 0 3.6 1.6 3.6 3.6s-1.6 3.6-3.6 3.6-3.6-1.6-3.6-3.6 1.6-3.6 3.6-3.6z" fill-rule="evenodd"/><path clip-rule="evenodd" d="m393.7 539.5c2 0 3.6 1.6 3.6 3.6s-1.6 3.6-3.6 3.6-3.6-1.6-3.6-3.6 1.7-3.6 3.6-3.6z" fill-rule="evenodd"/><path clip-rule="evenodd" d="m399.1 499.9c1 0 1.8.8 1.8 1.8s-.8 1.8-1.8 1.8-1.8-.8-1.8-1.8.8-1.8 1.8-1.8z" fill-rule="evenodd"/><path clip-rule="evenodd" d="m355.9 510.7c3 0 5.4 2.4 5.4 5.4s-2.4 5.4-5.4 5.4-5.4-2.4-5.4-5.4 2.4-5.4 5.4-5.4z" fill-rule="evenodd"/><path clip-rule="evenodd" d="m545 1371.3c2 0 3.6 1.6 3.6 3.6s-1.6 3.6-3.6 3.6-3.6-1.6-3.6-3.6 1.6-3.6 3.6-3.6z" fill-rule="evenodd"/><path clip-rule="evenodd" d="m521.6 1421.7c3 0 5.4 2.4 5.4 5.4s-2.4 5.4-5.4 5.4-5.4-2.4-5.4-5.4c0-2.9 2.4-5.4 5.4-5.4z" fill-rule="evenodd"/><path clip-rule="evenodd" d="m586.4 1439.7c1 0 1.8.8 1.8 1.8s-.8 1.8-1.8 1.8-1.8-.8-1.8-1.8.8-1.8 1.8-1.8z" fill-rule="evenodd"/><path clip-rule="evenodd" d="m798.9 1104.8c1 0 1.8.8 1.8 1.8s-.8 1.8-1.8 1.8-1.8-.8-1.8-1.8.8-1.8 1.8-1.8z" fill-rule="evenodd"/><path clip-rule="evenodd" d="m816.9 1097.6c1 0 1.8.8 1.8 1.8s-.8 1.8-1.8 1.8-1.8-.8-1.8-1.8.8-1.8 1.8-1.8z" fill-rule="evenodd"/><path clip-rule="evenodd" d="m829.5 1122.9c2 0 3.6 1.6 3.6 3.6s-1.6 3.6-3.6 3.6-3.6-1.6-3.6-3.6 1.6-3.6 3.6-3.6z" fill-rule="evenodd"/><path clip-rule="evenodd" d="m811.5 1151.7c2 0 3.6 1.6 3.6 3.6s-1.6 3.6-3.6 3.6-3.6-1.6-3.6-3.6 1.6-3.6 3.6-3.6z" fill-rule="evenodd"/><path clip-rule="evenodd" d="m861.9 1173.3c2 0 3.6 1.6 3.6 3.6s-1.6 3.6-3.6 3.6-3.6-1.6-3.6-3.6 1.6-3.6 3.6-3.6z" fill-rule="evenodd"/><path clip-rule="evenodd" d="m1023.9 1227.3c2 0 3.6 1.6 3.6 3.6s-1.6 3.6-3.6 3.6-3.6-1.6-3.6-3.6 1.6-3.6 3.6-3.6z" fill-rule="evenodd"/><path clip-rule="evenodd" d="m1032.9 1184.1c1 0 1.8.8 1.8 1.8s-.8 1.8-1.8 1.8-1.8-.8-1.8-1.8.8-1.8 1.8-1.8z" fill-rule="evenodd"/><path clip-rule="evenodd" d="m995.1 1209.3c2 0 3.6 1.6 3.6 3.6s-1.6 3.6-3.6 3.6-3.6-1.6-3.6-3.6 1.6-3.6 3.6-3.6z" fill-rule="evenodd"/><path clip-rule="evenodd" d="m1322.8 1464.9c2 0 3.6 1.6 3.6 3.6s-1.6 3.6-3.6 3.6-3.6-1.6-3.6-3.6c0-1.9 1.6-3.6 3.6-3.6z" fill-rule="evenodd"/><path clip-rule="evenodd" d="m1189.6 1403.7c2 0 3.6 1.6 3.6 3.6s-1.6 3.6-3.6 3.6-3.6-1.6-3.6-3.6 1.6-3.6 3.6-3.6z" fill-rule="evenodd"/><path clip-rule="evenodd" d="m1222 1400.1c2 0 3.6 1.6 3.6 3.6s-1.6 3.6-3.6 3.6-3.6-1.6-3.6-3.6 1.6-3.6 3.6-3.6z" fill-rule="evenodd"/><path clip-rule="evenodd" d="m1038.3 1425.3c2 0 3.6 1.6 3.6 3.6s-1.6 3.6-3.6 3.6-3.6-1.6-3.6-3.6c0-1.9 1.6-3.6 3.6-3.6z" fill-rule="evenodd"/><path clip-rule="evenodd" d="m1709.9 1194.9c1 0 1.8.8 1.8 1.8s-.8 1.8-1.8 1.8-1.8-.8-1.8-1.8.8-1.8 1.8-1.8z" fill-rule="evenodd"/><path clip-rule="evenodd" d="m1699.1 1169.7c3 0 5.4 2.4 5.4 5.4s-2.4 5.4-5.4 5.4-5.4-2.4-5.4-5.4 2.4-5.4 5.4-5.4z" fill-rule="evenodd"/><path clip-rule="evenodd" d="m1762.1 1176.9c2 0 3.6 1.6 3.6 3.6s-1.6 3.6-3.6 3.6-3.6-1.6-3.6-3.6 1.6-3.6 3.6-3.6z" fill-rule="evenodd"/><path clip-rule="evenodd" d="m1540.7 1007.6c1 0 1.8.8 1.8 1.8s-.8 1.8-1.8 1.8-1.8-.8-1.8-1.8.8-1.8 1.8-1.8z" fill-rule="evenodd"/><path clip-rule="evenodd" d="m1565.9 953.6c3 0 5.4 2.4 5.4 5.4s-2.4 5.4-5.4 5.4-5.4-2.4-5.4-5.4 2.4-5.4 5.4-5.4z" fill-rule="evenodd"/><path clip-rule="evenodd" d="m1614.5 978.8c2 0 3.6 1.6 3.6 3.6s-1.6 3.6-3.6 3.6-3.6-1.6-3.6-3.6 1.6-3.6 3.6-3.6z" fill-rule="evenodd"/><path clip-rule="evenodd" d="m1812.5 899.6c2 0 3.6 1.6 3.6 3.6s-1.6 3.6-3.6 3.6-3.6-1.6-3.6-3.6 1.7-3.6 3.6-3.6z" fill-rule="evenodd"/><path clip-rule="evenodd" d="m1819.8 932c2 0 3.6 1.6 3.6 3.6s-1.6 3.6-3.6 3.6-3.6-1.6-3.6-3.6 1.6-3.6 3.6-3.6z" fill-rule="evenodd"/><path clip-rule="evenodd" d="m1760.3 968c1 0 1.8.8 1.8 1.8s-.8 1.8-1.8 1.8-1.8-.8-1.8-1.8.8-1.8 1.8-1.8z" fill-rule="evenodd"/><path clip-rule="evenodd" d="m1796.3 1047.2c1 0 1.8.8 1.8 1.8s-.8 1.8-1.8 1.8-1.8-.8-1.8-1.8.9-1.8 1.8-1.8z" fill-rule="evenodd"/><path clip-rule="evenodd" d="m1524.5 878c2 0 3.6 1.6 3.6 3.6s-1.6 3.6-3.6 3.6-3.6-1.6-3.6-3.6 1.6-3.6 3.6-3.6z" fill-rule="evenodd"/><path clip-rule="evenodd" d="m1432.6 744.7c1 0 1.8.8 1.8 1.8s-.8 1.8-1.8 1.8-1.8-.8-1.8-1.8.8-1.8 1.8-1.8z" fill-rule="evenodd"/><path clip-rule="evenodd" d="m1427.2 719.5c2 0 3.6 1.6 3.6 3.6s-1.6 3.6-3.6 3.6-3.6-1.6-3.6-3.6 1.6-3.6 3.6-3.6z" fill-rule="evenodd"/><path clip-rule="evenodd" d="m1466.9 561.1c2 0 3.6 1.6 3.6 3.6s-1.6 3.6-3.6 3.6-3.6-1.6-3.6-3.6c-.1-2 1.6-3.6 3.6-3.6z" fill-rule="evenodd"/><path clip-rule="evenodd" d="m1470.5 539.5c2 0 3.6 1.6 3.6 3.6s-1.6 3.6-3.6 3.6-3.6-1.6-3.6-3.6 1.6-3.6 3.6-3.6z" fill-rule="evenodd"/><path clip-rule="evenodd" d="m1416.4 528.7c2 0 3.6 1.6 3.6 3.6s-1.6 3.6-3.6 3.6-3.6-1.6-3.6-3.6 1.6-3.6 3.6-3.6z" fill-rule="evenodd"/><path clip-rule="evenodd" d="m1436.2 503.5c1 0 1.8.8 1.8 1.8s-.8 1.8-1.8 1.8-1.8-.8-1.8-1.8.8-1.8 1.8-1.8z" fill-rule="evenodd"/><path clip-rule="evenodd" d="m906.9 694.3c3 0 5.4 2.4 5.4 5.4s-2.4 5.4-5.4 5.4-5.4-2.4-5.4-5.4 2.4-5.4 5.4-5.4z" fill-rule="evenodd"/><path clip-rule="evenodd" d="m930.3 679.9c2 0 3.6 1.6 3.6 3.6s-1.6 3.6-3.6 3.6-3.6-1.6-3.6-3.6 1.6-3.6 3.6-3.6z" fill-rule="evenodd"/><path clip-rule="evenodd" d="m818.7 788c2 0 3.6 1.6 3.6 3.6s-1.6 3.6-3.6 3.6-3.6-1.6-3.6-3.6 1.6-3.6 3.6-3.6z" fill-rule="evenodd"/><path clip-rule="evenodd" d="m865.5 798.8c2 0 3.6 1.6 3.6 3.6s-1.6 3.6-3.6 3.6-3.6-1.6-3.6-3.6 1.6-3.6 3.6-3.6z" fill-rule="evenodd"/><path clip-rule="evenodd" d="m887.1 759.1c2 0 3.6 1.6 3.6 3.6s-1.6 3.6-3.6 3.6-3.6-1.6-3.6-3.6c0-1.9 1.6-3.6 3.6-3.6z" fill-rule="evenodd"/><path clip-rule="evenodd" d="m838.5 935.6c1 0 1.8.8 1.8 1.8s-.8 1.8-1.8 1.8-1.8-.8-1.8-1.8.8-1.8 1.8-1.8z" fill-rule="evenodd"/><path clip-rule="evenodd" d="m728.6 730.3c2 0 3.6 1.6 3.6 3.6s-1.6 3.6-3.6 3.6-3.6-1.6-3.6-3.6c0-1.9 1.6-3.6 3.6-3.6z" fill-rule="evenodd"/><path clip-rule="evenodd" d="m579.2 550.3c3 0 5.4 2.4 5.4 5.4s-2.4 5.4-5.4 5.4-5.4-2.4-5.4-5.4 2.4-5.4 5.4-5.4z" fill-rule="evenodd"/><path clip-rule="evenodd" d="m606.2 528.7c2 0 3.6 1.6 3.6 3.6s-1.6 3.6-3.6 3.6-3.6-1.6-3.6-3.6 1.6-3.6 3.6-3.6z" fill-rule="evenodd"/><path clip-rule="evenodd" d="m627.8 568.3c2 0 3.6 1.6 3.6 3.6s-1.6 3.6-3.6 3.6-3.6-1.6-3.6-3.6 1.6-3.6 3.6-3.6z" fill-rule="evenodd"/><path clip-rule="evenodd" d="m692.6 503.5c2 0 3.6 1.6 3.6 3.6s-1.6 3.6-3.6 3.6-3.6-1.6-3.6-3.6 1.6-3.6 3.6-3.6z" fill-rule="evenodd"/><path clip-rule="evenodd" d="m489.2 438.7c3 0 5.4 2.4 5.4 5.4s-2.4 5.4-5.4 5.4-5.4-2.4-5.4-5.4 2.4-5.4 5.4-5.4z" fill-rule="evenodd"/><path clip-rule="evenodd" d="m462.2 481.9c2 0 3.6 1.6 3.6 3.6s-1.6 3.6-3.6 3.6-3.6-1.6-3.6-3.6 1.6-3.6 3.6-3.6z" fill-rule="evenodd"/><path clip-rule="evenodd" d="m393.7 539.5c2 0 3.6 1.6 3.6 3.6s-1.6 3.6-3.6 3.6-3.6-1.6-3.6-3.6 1.7-3.6 3.6-3.6z" fill-rule="evenodd"/><path clip-rule="evenodd" d="m399.1 499.9c1 0 1.8.8 1.8 1.8s-.8 1.8-1.8 1.8-1.8-.8-1.8-1.8.8-1.8 1.8-1.8z" fill-rule="evenodd"/><path clip-rule="evenodd" d="m355.9 510.7c3 0 5.4 2.4 5.4 5.4s-2.4 5.4-5.4 5.4-5.4-2.4-5.4-5.4 2.4-5.4 5.4-5.4z" fill-rule="evenodd"/><path clip-rule="evenodd" d="m545 1371.3c2 0 3.6 1.6 3.6 3.6s-1.6 3.6-3.6 3.6-3.6-1.6-3.6-3.6 1.6-3.6 3.6-3.6z" fill-rule="evenodd"/><path clip-rule="evenodd" d="m521.6 1421.7c3 0 5.4 2.4 5.4 5.4s-2.4 5.4-5.4 5.4-5.4-2.4-5.4-5.4c0-2.9 2.4-5.4 5.4-5.4z" fill-rule="evenodd"/><path clip-rule="evenodd" d="m586.4 1439.7c1 0 1.8.8 1.8 1.8s-.8 1.8-1.8 1.8-1.8-.8-1.8-1.8.8-1.8 1.8-1.8z" fill-rule="evenodd"/><path clip-rule="evenodd" d="m826.9 1073.3c0 .9-.7 1.7-1.7 1.7s-1.7-.7-1.7-1.7.7-1.7 1.7-1.7 1.7.8 1.7 1.7zm1-12.9c-.6 0-1 .5-1 1 0 .6.5 1 1 1s1-.5 1-1c.1-.6-.4-1-1-1zm7.8 11.2c-.5 0-.8.4-.8.8 0 .5.4.8.8.8.5 0 .8-.4.8-.8s-.4-.8-.8-.8zm-33.4 29.7c-.7 0-1.3.6-1.3 1.3s.6 1.3 1.3 1.3 1.3-.6 1.3-1.3c-.1-.8-.6-1.3-1.3-1.3zm2.1-13.8c-.5 0-.8.4-.8.8 0 .5.4.8.8.8.5 0 .8-.4.8-.8s-.4-.8-.8-.8zm28.3 16.3c-1.2 0-2.1.9-2.1 2.1s.9 2.1 2.1 2.1 2.1-.9 2.1-2.1-.9-2.1-2.1-2.1zm8.2 79.1c-.7 0-1.3.6-1.3 1.3s.6 1.3 1.3 1.3 1.3-.6 1.3-1.3c-.1-.7-.6-1.3-1.3-1.3zm6-8.7c-.8 0-1.4.6-1.4 1.4s.6 1.4 1.4 1.4 1.4-.6 1.4-1.4-.6-1.4-1.4-1.4zm5.9 5.8c-.8 0-1.5.7-1.5 1.5s.7 1.5 1.5 1.5 1.5-.7 1.5-1.5c-.1-.9-.7-1.5-1.5-1.5zm105.3 91c-.7 0-1.3.6-1.3 1.3s.6 1.3 1.3 1.3 1.3-.6 1.3-1.3c0-.8-.6-1.3-1.3-1.3zm-171.3 14.8c-1.2 0-2.3 1-2.3 2.3s1 2.3 2.3 2.3 2.3-1 2.3-2.3-1.1-2.3-2.3-2.3zm74.1-55.1c-.9 0-1.7.8-1.7 1.7s.8 1.7 1.7 1.7 1.7-.8 1.7-1.7c0-1-.7-1.7-1.7-1.7zm32.2 31.7c-1.3 0-2.3 1-2.3 2.3s1 2.3 2.3 2.3c1.2 0 2.3-1 2.3-2.3s-1.1-2.3-2.3-2.3zm-222.6 41.8c-.8 0-1.5.7-1.5 1.5s.7 1.5 1.5 1.5 1.5-.7 1.5-1.5-.7-1.5-1.5-1.5zm9.1 9.5c-.5 0-1 .4-1 1s.4 1 1 1 1-.4 1-1-.5-1-1-1zm50.1 32.6c-1 0-1.7.8-1.7 1.7 0 1 .8 1.7 1.7 1.7s1.7-.8 1.7-1.7-.7-1.7-1.7-1.7zm4.5-3.7c-.5 0-1 .4-1 1s.4 1 1 1 1-.4 1-1-.5-1-1-1zm9.1 5.4c-.5 0-.9.4-.9.9s.4.9.9.9.9-.4.9-.9c-.1-.5-.5-.9-.9-.9zm9.3 9.2c-1 0-1.9.8-1.9 1.9 0 1 .8 1.9 1.9 1.9 1 0 1.9-.8 1.9-1.9s-.8-1.9-1.9-1.9zm41 58.1c-.9 0-1.6.7-1.6 1.6s.7 1.6 1.6 1.6 1.6-.7 1.6-1.6-.7-1.6-1.6-1.6zm3.6-7.5c-1.1 0-2 .9-2 2s.9 2 2 2 2-.9 2-2-.9-2-2-2zm10.3 9.1c-.9 0-1.7.8-1.7 1.7s.8 1.7 1.7 1.7 1.7-.8 1.7-1.7-.8-1.7-1.7-1.7zm-56.3 60.6c-.7 0-1.3.6-1.3 1.3s.6 1.3 1.3 1.3 1.3-.6 1.3-1.3c-.1-.7-.7-1.3-1.3-1.3zm10.6 0c-.3 0-.6.3-.6.6s.3.6.6.6.6-.3.6-.6-.3-.6-.6-.6zm5.3 10.9c-.5 0-.9.4-.9.9s.4.9.9.9.9-.4.9-.9c.1-.5-.4-.9-.9-.9zm7.3 10.4c-.9 0-1.6.7-1.6 1.6s.7 1.6 1.6 1.6 1.6-.7 1.6-1.6-.7-1.6-1.6-1.6zm-20.5 10c-.8 0-1.5.7-1.5 1.5s.7 1.5 1.5 1.5 1.5-.7 1.5-1.5c-.1-.8-.7-1.5-1.5-1.5zm-5.5-91.9c-.8 0-1.5.7-1.5 1.5s.7 1.5 1.5 1.5 1.5-.7 1.5-1.5c0-.9-.7-1.5-1.5-1.5zm121.5-494.8c-1.3 0-2.3 1-2.3 2.3s1 2.3 2.3 2.3 2.3-1 2.3-2.3-1.1-2.3-2.3-2.3zm4.1-5.8c-1 0-1.9.8-1.9 1.9 0 1 .8 1.9 1.9 1.9 1 0 1.9-.8 1.9-1.9s-.8-1.9-1.9-1.9zm22.6 21.3c-1 0-1.9.8-1.9 1.9 0 1 .8 1.9 1.9 1.9 1 0 1.9-.8 1.9-1.9-.1-1.1-.9-1.9-1.9-1.9zm67-39.3c-1.3 0-2.3 1-2.3 2.3s1 2.3 2.3 2.3 2.3-1 2.3-2.3-1-2.3-2.3-2.3zm28.1 51.8c-1.5 0-2.7 1.2-2.7 2.7s1.2 2.7 2.7 2.7 2.7-1.2 2.7-2.7-1.2-2.7-2.7-2.7zm45.2 43.8c-.4 0-.7.3-.7.7s.3.7.7.7.7-.3.7-.7-.3-.7-.7-.7zm12.9 1.5c-1.1 0-1.9.9-1.9 1.9 0 1.1.9 1.9 1.9 1.9 1.1 0 1.9-.9 1.9-1.9 0-1.1-.9-1.9-1.9-1.9zm174 177.7c0-.4-.3-.7-.7-.7s-.7.3-.7.7.3.7.7.7c.3 0 .7-.3.7-.7zm13.8-37.7c-.6 0-1.1.5-1.1 1.1s.5 1.1 1.1 1.1 1.1-.5 1.1-1.1c.1-.5-.4-1.1-1.1-1.1zm-29.6 8c-.8 0-1.5.7-1.5 1.5s.7 1.5 1.5 1.5 1.5-.7 1.5-1.5c0-.9-.7-1.5-1.5-1.5zm42.3 36.3c-1.2 0-2.1.9-2.1 2.1s.9 2.1 2.1 2.1 2.1-.9 2.1-2.1-1-2.1-2.1-2.1zm-127.3-345.6c-.7 0-1.4.6-1.4 1.4s.6 1.4 1.4 1.4c.7 0 1.4-.6 1.4-1.4s-.6-1.4-1.4-1.4zm16.6-10.9c-.9 0-1.7.7-1.7 1.7s.7 1.7 1.7 1.7c.9 0 1.7-.7 1.7-1.7s-.7-1.7-1.7-1.7zm17.9 37.2c-.9 0-1.6.7-1.6 1.6s.7 1.6 1.6 1.6 1.6-.7 1.6-1.6-.8-1.6-1.6-1.6zm44.7 6.2c-.7 0-1.3.6-1.3 1.3s.6 1.3 1.3 1.3 1.3-.6 1.3-1.3-.6-1.3-1.3-1.3zm-2.9-109.2c-.9 0-1.7.7-1.7 1.7s.7 1.7 1.7 1.7c.9 0 1.7-.7 1.7-1.7s-.8-1.7-1.7-1.7zm18.1 8.8c-.8 0-1.5.7-1.5 1.5s.7 1.5 1.5 1.5 1.5-.7 1.5-1.5-.6-1.5-1.5-1.5zm30.9 30c-2 0-3.5 1.6-3.5 3.5 0 2 1.6 3.5 3.5 3.5 2 0 3.5-1.6 3.5-3.5.1-1.9-1.5-3.5-3.5-3.5zm-49.2 0c-2 0-3.5 1.6-3.5 3.5 0 2 1.6 3.5 3.5 3.5 2 0 3.5-1.6 3.5-3.5s-1.6-3.5-3.5-3.5zm-374.7 21.5c-.6-.4-1.5-.3-1.9.3s-.3 1.5.3 1.9 1.5.3 1.9-.3.3-1.4-.3-1.9zm2.8 14.5c-1-.7-2.3-.5-3.1.5-.7 1-.5 2.3.5 3.1 1 .7 2.3.5 3.1-.5.7-1 .5-2.4-.5-3.1zm-81-165.8c-.8-.6-1.9-.4-2.5.4s-.4 1.9.4 2.5 1.9.4 2.5-.4.4-1.9-.4-2.5zm52.2 114.4c-.8-.6-1.9-.4-2.5.4s-.4 1.9.4 2.5 1.9.4 2.5-.4.4-2-.4-2.5zm-131.9 95c-1-.2-1.9.4-2.1 1.3s.4 1.9 1.3 2.1 1.9-.4 2.1-1.3-.4-1.8-1.3-2.1zm100.7-20.3c-.6-.1-1.2.2-1.4.8-.1.6.2 1.2.8 1.4.6.1 1.2-.2 1.4-.8s-.2-1.2-.8-1.4zm-73.8 25.6c-.5-.1-1 .2-1.1.7s.2 1 .7 1.1 1-.2 1.1-.7c.1-.6-.2-1-.7-1.1zm182.5-197.7c0 1.2.9 2.1 2.1 2.1s2.1-.9 2.1-2.1-.9-2.1-2.1-2.1c-1.1.1-2.1 1-2.1 2.1zm-1.2 27.2c0 .9.7 1.7 1.7 1.7s1.7-.7 1.7-1.7-.7-1.7-1.7-1.7-1.7.7-1.7 1.7zm201-262.7c-.7 0-1.4.6-1.4 1.4s.6 1.4 1.4 1.4c.7 0 1.4-.6 1.4-1.4s-.6-1.4-1.4-1.4zm14.4 8c-.9 0-1.6.7-1.6 1.6s.7 1.6 1.6 1.6 1.6-.7 1.6-1.6-.7-1.6-1.6-1.6zm9.5 7c-1.3 0-2.3 1-2.3 2.3s1 2.3 2.3 2.3 2.3-1 2.3-2.3c0-1.2-1-2.3-2.3-2.3zm17.5 118c-.7 0-1.4.6-1.4 1.4s.6 1.4 1.4 1.4c.7 0 1.4-.6 1.4-1.4s-.6-1.4-1.4-1.4zm-125.4 15.6c0 1 .8 1.8 1.8 1.8s1.8-.8 1.8-1.8-.8-1.8-1.8-1.8-1.8.8-1.8 1.8zm-304.3-87.1c-.7 0-1.4.6-1.4 1.4s.6 1.4 1.4 1.4 1.4-.6 1.4-1.4-.6-1.4-1.4-1.4zm19.6 2.8c-1 0-1.7.8-1.7 1.7 0 1 .8 1.7 1.7 1.7s1.7-.8 1.7-1.7c0-1-.8-1.7-1.7-1.7zm3.8 20.2c-1.2 0-2.1.9-2.1 2.1s.9 2.1 2.1 2.1 2.1-.9 2.1-2.1-1-2.1-2.1-2.1zm-116.5 17.8c-1 0-1.9.8-1.9 1.9s.8 1.9 1.9 1.9c1 0 1.9-.8 1.9-1.9s-.9-1.9-1.9-1.9zm20.2 1.3c-.7 0-1.2.5-1.2 1.2s.5 1.2 1.2 1.2 1.2-.5 1.2-1.2-.6-1.2-1.2-1.2zm12.5 144.9c0 1.1.9 2 2 2s2-.9 2-2-.9-2-2-2-2 .9-2 2zm-3.7-33.4c0 .5.4.9.9.9s.9-.4.9-.9-.4-.9-.9-.9c-.5-.1-.9.4-.9.9zm-82.4 50.9c0 .9.7 1.7 1.7 1.7s1.7-.7 1.7-1.7-.7-1.7-1.7-1.7-1.7.8-1.7 1.7zm115.3 70.7c-.9 0-1.7.7-1.7 1.7 0 .9.7 1.7 1.7 1.7s1.7-.7 1.7-1.7c-.1-.9-.8-1.7-1.7-1.7zm-152.4-2.2s-.7 0-1.5 0-1.5 0-1.5 0 .7 0 1.5 0 1.5 0 1.5 0zm-22.5-11.3c-.9 0-1.7.7-1.7 1.7 0 .9.7 1.7 1.7 1.7.9 0 1.7-.7 1.7-1.7 0-.9-.8-1.7-1.7-1.7zm-103.2 365.9c-.7 0-1.3.6-1.3 1.3s.6 1.3 1.3 1.3 1.3-.6 1.3-1.3c-.1-.8-.6-1.3-1.3-1.3zm18.6 13.8c-.8 0-1.5.7-1.5 1.5s.7 1.5 1.5 1.5 1.5-.7 1.5-1.5c-.1-.9-.7-1.5-1.5-1.5zm51.5-13.8c-1.4 0-2.5 1.1-2.5 2.5s1.1 2.5 2.5 2.5 2.5-1.1 2.5-2.5-1.1-2.5-2.5-2.5zm27.3-155.6c-.8 0-1.4.6-1.4 1.4s.6 1.4 1.4 1.4 1.4-.6 1.4-1.4-.6-1.4-1.4-1.4zm-178.6-277.7c-1 0-1.8.8-1.8 1.8s.8 1.8 1.8 1.8 1.8-.8 1.8-1.8-.8-1.8-1.8-1.8zm7.9-7.3c-.7 0-1.4.6-1.4 1.4s.6 1.4 1.4 1.4 1.4-.6 1.4-1.4-.7-1.4-1.4-1.4zm13.6-8.4c-1.6 0-2.9 1.3-2.9 2.9s1.3 2.9 2.9 2.9 2.9-1.3 2.9-2.9-1.2-2.9-2.9-2.9zm206.1 367.3c-1 0-1.9.8-1.9 1.9 0 1 .8 1.9 1.9 1.9 1 0 1.9-.8 1.9-1.9 0-1-.9-1.9-1.9-1.9zm-2.9-30.4c-1.3 0-2.4 1.1-2.4 2.4s1.1 2.4 2.4 2.4 2.4-1.1 2.4-2.4-1.1-2.4-2.4-2.4zm-281.6-524.3c-1.2 0-2.1.9-2.1 2.1s.9 2.1 2.1 2.1 2.1-.9 2.1-2.1-.9-2.1-2.1-2.1zm47.6-70.3c-2 0-3.7 1.7-3.7 3.7s1.7 3.7 3.7 3.7 3.7-1.7 3.7-3.7c0-2.1-1.7-3.7-3.7-3.7zm-18.8 135.4c-1.4 0-2.5 1.1-2.5 2.5s1.1 2.5 2.5 2.5 2.5-1.1 2.5-2.5-1.1-2.5-2.5-2.5zm18.9-2.1c-.7 0-1.4.6-1.4 1.4s.6 1.4 1.4 1.4 1.4-.6 1.4-1.4-.7-1.4-1.4-1.4zm133-89.6c-.9 0-1.7.7-1.7 1.7 0 .9.7 1.7 1.7 1.7.9 0 1.7-.7 1.7-1.7-.1-1-.8-1.7-1.7-1.7zm35.9 32.5c-1.6 0-2.9 1.3-2.9 2.9s1.3 2.9 2.9 2.9 2.9-1.3 2.9-2.9-1.3-2.9-2.9-2.9zm-50.6 215.9c-.6 0-1.2.5-1.2 1.2 0 .6.5 1.2 1.2 1.2.6 0 1.2-.5 1.2-1.2s-.6-1.2-1.2-1.2zm6.2 5c-.6 0-1 .4-1 1s.4 1 1 1 1-.4 1-1-.5-1-1-1zm38.6-41.4c-1 0-1.8.8-1.8 1.8s.8 1.8 1.8 1.8 1.8-.8 1.8-1.8-.8-1.8-1.8-1.8zm19 17.5c-.6 0-1 .4-1 1s.4 1 1 1 1-.4 1-1-.5-1-1-1zm-4.7 8.8c-.3 0-.6.3-.6.6s.3.6.6.6.6-.3.6-.6-.2-.6-.6-.6zm169.6 316.5c-.2 0-.4.2-.4.4s.2.4.4.4.4-.2.4-.4-.1-.4-.4-.4zm-36.8 82.9c-.4 0-.8.4-.8.8s.4.8.8.8.8-.4.8-.8-.4-.8-.8-.8zm8.1-7.6c-.4 0-.8.3-.8.8 0 .4.3.8.8.8.4 0 .8-.3.8-.8s-.4-.8-.8-.8zm4.3 7.6c-.4 0-.8.4-.8.8s.4.8.8.8.8-.4.8-.8-.4-.8-.8-.8zm-402.7-206c-1 0-1.8.8-1.8 1.8s.8 1.8 1.8 1.8 1.8-.8 1.8-1.8-.8-1.8-1.8-1.8zm18.1 0c-.3 0-.6.3-.6.6s.3.6.6.6.6-.3.6-.6-.3-.6-.6-.6zm-3.4 12.1c-.8 0-1.4.6-1.4 1.4s.6 1.4 1.4 1.4 1.4-.6 1.4-1.4c0-.7-.6-1.4-1.4-1.4zm9.3 2.8c-.6 0-1.2.5-1.2 1.2 0 .6.5 1.2 1.2 1.2.6 0 1.2-.5 1.2-1.2-.1-.7-.6-1.2-1.2-1.2zm-116.3 57.2c-.8 0-1.4.6-1.4 1.4s.6 1.4 1.4 1.4 1.4-.6 1.4-1.4-.6-1.4-1.4-1.4zm61.8-4.4c-1.2 0-2.2 1-2.2 2.2s1 2.2 2.2 2.2 2.2-1 2.2-2.2c-.1-1.2-1-2.2-2.2-2.2zm-27.2 12.2c-.6 0-1.1.5-1.1 1.1s.5 1.1 1.1 1.1 1.1-.5 1.1-1.1c-.1-.7-.5-1.1-1.1-1.1zm-93.5 67.4c-.6 0-1.1.5-1.1 1.1s.5 1.1 1.1 1.1 1.1-.5 1.1-1.1-.5-1.1-1.1-1.1zm6.4-14.9c-.7 0-1.3 0-1.3 0s.6 0 1.3 0 1.3 0 1.3 0-.6 0-1.3 0zm11.6 10.7c-.8 0-1.5.7-1.5 1.5s.7 1.5 1.5 1.5 1.5-.7 1.5-1.5c.1-.8-.6-1.5-1.5-1.5zm1.7 37.7c-.9 0-1.7.8-1.7 1.7s.8 1.7 1.7 1.7 1.7-.8 1.7-1.7-.7-1.7-1.7-1.7zm-15.6-60.4c-.6 0-1.1.5-1.1 1.1s.5 1.1 1.1 1.1 1.1-.5 1.1-1.1-.5-1.1-1.1-1.1zm-52.5 63.7c-.4 0-.7.3-.7.7s.3.7.7.7.7-.3.7-.7-.3-.7-.7-.7zm.9-16.1c-.5 0-.9.4-.9.9s.4.9.9.9.9-.4.9-.9-.3-.9-.9-.9zm125.7 77.7c-.6 0-1.1.5-1.1 1.1s.5 1.1 1.1 1.1 1.1-.5 1.1-1.1-.5-1.1-1.1-1.1zm5.1-10.3c-.9 0-1.6.7-1.6 1.6s.7 1.6 1.6 1.6 1.6-.7 1.6-1.6-.8-1.6-1.6-1.6zm-11.5 4.2c-.6 0-1 .4-1 1s.4 1 1 1 1-.4 1-1c0-.5-.5-1-1-1zm94.4-8.6c-.3 0-.6.3-.6.6s.3.6.6.6.6-.3.6-.6-.3-.6-.6-.6zm-4-9.6c-.8 0-1.5.7-1.5 1.5s.7 1.5 1.5 1.5 1.5-.7 1.5-1.5c0-.9-.7-1.5-1.5-1.5zm-12.6 17.2c-.6 0-1 .5-1 1s.5 1 1 1 1-.5 1-1-.4-1-1-1zm140 104.4c-1.1 0-2 .9-2 2s.9 2.1 2 2.1 2-.9 2-2.1c.1-1.1-.8-2-2-2zm14.7-15.2c-1 0-1.8.8-1.8 1.8s.8 1.8 1.8 1.8 1.8-.8 1.8-1.8c.1-1-.7-1.8-1.8-1.8zm-348-428.2c-.5 0-.9.4-.9.9s.4.9.9.9.9-.4.9-.9-.4-.9-.9-.9zm8.9 6.1c-.6 0-1.1.5-1.1 1.1s.5 1.1 1.1 1.1 1.1-.5 1.1-1.1c.1-.6-.5-1.1-1.1-1.1zm-13.8 17.6c-.5 0-1 .4-1 1s.4 1 1 1 1-.4 1-1-.5-1-1-1zm-11.7-16.4c-.3 0-.6.3-.6.6s.3.6.6.6.6-.3.6-.6c0-.4-.3-.6-.6-.6zm6.9 4.9c-.4 0-.8.3-.8.8 0 .4.3.8.8.8s.8-.3.8-.8-.4-.8-.8-.8zm1.4-24.1c-.4 0-.7.3-.7.7s.3.7.7.7.7-.3.7-.7-.3-.7-.7-.7zm104.7-40.3c-.2 0-.4.2-.4.4s.2.4.4.4.4-.2.4-.4-.1-.4-.4-.4zm-13.2 25.8c-.3 0-.5.2-.5.5s.2.5.5.5.5-.2.5-.5-.3-.5-.5-.5zm-16.3-17.2c-.3 0-.6.3-.6.6s.3.6.6.6.6-.3.6-.6-.2-.6-.6-.6zm22.1 5.7c-.7 0-1.2.5-1.2 1.2s.5 1.2 1.2 1.2 1.2-.5 1.2-1.2-.5-1.2-1.2-1.2zm-40.6-28c-.7 0-1.2.5-1.2 1.2s.5 1.2 1.2 1.2 1.2-.5 1.2-1.2-.5-1.2-1.2-1.2zm4.6 38c-.7 0-1.2.5-1.2 1.2s.5 1.2 1.2 1.2 1.2-.5 1.2-1.2-.5-1.2-1.2-1.2zm107.5 31c-.7 0-1.3.6-1.3 1.3s.6 1.3 1.3 1.3 1.3-.6 1.3-1.3-.6-1.3-1.3-1.3zm2.7-17.6c-.8 0-1.4.6-1.4 1.4s.6 1.4 1.4 1.4 1.4-.6 1.4-1.4-.6-1.4-1.4-1.4zm-58.6 50.3c-1 0-1.8.8-1.8 1.8s.8 1.8 1.8 1.8 1.8-.8 1.8-1.8-.8-1.8-1.8-1.8zm636.9 98.1c-.4 0-.7.3-.7.7s.3.7.7.7.7-.3.7-.7-.3-.7-.7-.7zm7.7-6.9c-.4 0-.8.3-.8.8s.3.8.8.8c.4 0 .8-.3.8-.8s-.3-.8-.8-.8zm12.1 8.2c-.8 0-1.5.7-1.5 1.5s.7 1.5 1.5 1.5 1.5-.7 1.5-1.5-.7-1.5-1.5-1.5zm-48.7 20.5c-.2 0-.4.2-.4.4s.2.4.4.4.4-.2.4-.4-.2-.4-.4-.4zm-45.5 39.5c-.5 0-1 .4-1 1s.4 1 1 1 1-.4 1-1-.4-1-1-1zm4.7-3.2c-.5 0-.9.4-.9.9s.4.9.9.9.9-.4.9-.9-.5-.9-.9-.9zm17.3 11.9c-.5 0-.9.4-.9.9s.4.9.9.9.9-.4.9-.9-.4-.9-.9-.9zm383.1 187.3c-1.8 0-3.3 1.5-3.3 3.3s1.5 3.3 3.3 3.3 3.3-1.5 3.3-3.3-1.5-3.3-3.3-3.3zm-10.8-86.7c-1.2 0-2.1.9-2.1 2.1s.9 2.1 2.1 2.1 2.1-.9 2.1-2.1-1-2.1-2.1-2.1zm418.9 246.7c-1.3 0-2.4 1.1-2.4 2.4s1.1 2.4 2.4 2.4 2.4-1.1 2.4-2.4-1-2.4-2.4-2.4zm13-29.2c-1.4 0-2.5 1.1-2.5 2.5s1.1 2.5 2.5 2.5 2.5-1.1 2.5-2.5-1.1-2.5-2.5-2.5zm9.1 22.1c-1 0-1.9.8-1.9 1.9 0 1 .8 1.9 1.9 1.9s1.9-.8 1.9-1.9c-.1-1.1-.9-1.9-1.9-1.9zm-256.9 20c-1 0-1.8.8-1.8 1.8s.8 1.8 1.8 1.8 1.8-.8 1.8-1.8-.8-1.8-1.8-1.8zm18.4-10.4c-1.1 0-1.9.9-1.9 1.9s.9 1.9 1.9 1.9 1.9-.9 1.9-1.9-.9-1.9-1.9-1.9zm-229.5 44.2c-.9 0-1.7.7-1.7 1.7s.7 1.7 1.7 1.7 1.7-.7 1.7-1.7-.7-1.7-1.7-1.7zm11.2-8.8c-.7 0-1.3.6-1.3 1.3s.6 1.3 1.3 1.3 1.3-.6 1.3-1.3c.1-.7-.5-1.3-1.3-1.3zm0-61.9c-.7 0-1.3.6-1.3 1.3s.6 1.3 1.3 1.3 1.3-.6 1.3-1.3c.1-.8-.5-1.3-1.3-1.3zm-30.3 32.6c-1.1 0-2 .9-2 2s.9 2 2 2 2-.9 2-2-.9-2-2-2zm-122.2 110.1c-.7 0-1.3.6-1.3 1.3s.6 1.3 1.3 1.3 1.3-.6 1.3-1.3c.1-.7-.5-1.3-1.3-1.3zm602.3-272.5c-1.3 0-2.3 1-2.3 2.3s1 2.3 2.3 2.3 2.3-1 2.3-2.3-1-2.3-2.3-2.3zm17.9-3.1c-1.2 0-2.1.9-2.1 2.1s.9 2.1 2.1 2.1 2.1-.9 2.1-2.1-.9-2.1-2.1-2.1zm-9.8-100.6c-1.3 0-2.4 1.1-2.4 2.4s1.1 2.4 2.4 2.4 2.4-1.1 2.4-2.4-1.1-2.4-2.4-2.4zm96.7 8.4c-.9 0-1.7.7-1.7 1.7s.7 1.7 1.7 1.7 1.7-.7 1.7-1.7-.8-1.7-1.7-1.7zm-4.7 15c-.6 0-1 .5-1 1 0 .6.5 1 1 1 .6 0 1-.5 1-1s-.4-1-1-1zm-29.6-18.5c-1.1 0-2 .9-2 2s.9 2 2 2 2-.9 2-2-.9-2-2-2zm93.2 235.2c-.4 0-.8.3-.8.8s.3.8.8.8.8-.3.8-.8-.4-.8-.8-.8zm246.2-47.4c-1.1 0-2 .9-2 2s.9 2 2 2 2-.9 2-2-.9-2-2-2zm11.3-20.3c-1 0-1.8.8-1.8 1.8s.8 1.8 1.8 1.8 1.8-.8 1.8-1.8-.8-1.8-1.8-1.8zm-15 9.7c-1 0-1.8.8-1.8 1.8s.8 1.8 1.8 1.8 1.8-.8 1.8-1.8c-.1-1-.9-1.8-1.8-1.8zm18.7 52.3c-1 0-1.9.8-1.9 1.9 0 1 .8 1.9 1.9 1.9 1 0 1.9-.8 1.9-1.9s-.9-1.9-1.9-1.9zm-76.9 67.3c-.9 0-1.7.7-1.7 1.7 0 .9.7 1.7 1.7 1.7.9 0 1.7-.7 1.7-1.7 0-.9-.8-1.7-1.7-1.7zm-30.9-119.6c-1 0-1.8.8-1.8 1.8s.8 1.8 1.8 1.8 1.8-.8 1.8-1.8-.8-1.8-1.8-1.8zm9.6-1.8c-.7 0-1.2.5-1.2 1.2s.5 1.2 1.2 1.2 1.2-.5 1.2-1.2c.1-.6-.5-1.2-1.2-1.2zm-6.9-14.6c-.5 0-1 .4-1 1s.4 1 1 1 1-.4 1-1-.4-1-1-1zm-12.2 8.4c-.9 0-1.6.7-1.6 1.6s.7 1.6 1.6 1.6 1.6-.7 1.6-1.6-.8-1.6-1.6-1.6zm-6.8 18.6c-.6 0-1 .4-1 1s.4 1 1 1 1-.4 1-1c0-.5-.4-1-1-1zm-132-125c-.6 0-1.1.5-1.1 1.1s.5 1.1 1.1 1.1 1.1-.5 1.1-1.1-.5-1.1-1.1-1.1zm10.3 2.2c-.9 0-1.7.7-1.7 1.7s.7 1.7 1.7 1.7 1.7-.7 1.7-1.7-.8-1.7-1.7-1.7zm6.6 3.3c-1.1 0-2 .9-2 2s.9 2 2 2 2-.9 2-2-.9-2-2-2zm102-1c-.7 0-1.2.5-1.2 1.2s.5 1.2 1.2 1.2 1.2-.5 1.2-1.2c.1-.6-.5-1.2-1.2-1.2zm13.2 11.1c-.6 0-1.1.5-1.1 1.1s.5 1.1 1.1 1.1 1.1-.5 1.1-1.1-.5-1.1-1.1-1.1zm78.7-90.8c-.5 0-.9.4-.9.9s.4.9.9.9.9-.4.9-.9-.4-.9-.9-.9zm2.6-15.5c-1 0-1.8.8-1.8 1.8s.8 1.8 1.8 1.8 1.8-.8 1.8-1.8-.8-1.8-1.8-1.8zm24-24c-1 0-1.8.8-1.8 1.8s.8 1.8 1.8 1.8 1.8-.8 1.8-1.8c-.1-1-.9-1.8-1.8-1.8zm-56.5-8.8c-.6 0-1.1.5-1.1 1.1s.5 1.1 1.1 1.1 1.1-.5 1.1-1.1-.5-1.1-1.1-1.1zm81.5 79.2c-.4 0-.7.3-.7.7s.3.7.7.7.7-.3.7-.7-.3-.7-.7-.7zm-213.3 93.6c-.5 0-.9.4-.9.9s.4.9.9.9.9-.4.9-.9-.5-.9-.9-.9zm15.9 5.3c-.7 0-1.3.6-1.3 1.3s.6 1.3 1.3 1.3 1.3-.6 1.3-1.3-.6-1.3-1.3-1.3zm-29.4-98.9c-.4 0-.7.3-.7.7s.3.7.7.7.7-.3.7-.7-.4-.7-.7-.7zm-106.6-152.9c-1 0-1.8.8-1.8 1.8s.8 1.8 1.8 1.8 1.8-.8 1.8-1.8-.8-1.8-1.8-1.8zm84.8-2.5c-1.1 0-2 .9-2 2s.9 2 2 2 2-.9 2-2c0-1.2-.9-2-2-2zm-136.7 15.8c-.7 0-1.3.6-1.3 1.3s.6 1.3 1.3 1.3 1.3-.6 1.3-1.3c.1-.7-.5-1.3-1.3-1.3zm70.2-219.6c-.6 0-1 .4-1 1s.4 1 1 1 1-.4 1-1-.5-1-1-1zm12.9-2.3c-.6 0-1.1.5-1.1 1.1s.5 1.1 1.1 1.1 1.1-.5 1.1-1.1-.5-1.1-1.1-1.1zm12.2-17.2c-.7 0-1.3.6-1.3 1.3s.6 1.3 1.3 1.3 1.3-.6 1.3-1.3-.6-1.3-1.3-1.3zm29.6 23.9c-.9 0-1.7.7-1.7 1.7s.7 1.7 1.7 1.7 1.7-.7 1.7-1.7-.8-1.7-1.7-1.7zm12.8 50.5c-.5 0-1 .4-1 1s.4 1 1 1 1-.4 1-1-.5-1-1-1zm-9.5-17.3c-.9 0-1.7.7-1.7 1.7s.7 1.7 1.7 1.7 1.7-.7 1.7-1.7-.8-1.7-1.7-1.7zm10.5-6.2s-.9 0-2 0-2 0-2 0 .9 0 2 0zm6.2-7.1c0-.5-.4-.9-.9-.9s-.9.4-.9.9.4.9.9.9.9-.4.9-.9zm-556.9 151.2c-.4 0-.7.3-.7.7s.3.7.7.7.7-.3.7-.7c-.1-.4-.4-.7-.7-.7zm8 5.6c-.4 0-.7.3-.7.7s.3.7.7.7.7-.3.7-.7-.3-.7-.7-.7zm-7.4 14.3c-.7 0-1.3.6-1.3 1.3s.6 1.3 1.3 1.3 1.3-.6 1.3-1.3c.1-.7-.5-1.3-1.3-1.3zm62.1-49.2c-.7 0-1.2.6-1.2 1.2s.6 1.2 1.2 1.2c.7 0 1.2-.6 1.2-1.2s-.5-1.2-1.2-1.2zm1.8 48.3c-1 0-1.8.8-1.8 1.8s.8 1.8 1.8 1.8 1.8-.8 1.8-1.8-.8-1.8-1.8-1.8zm77.8 111.8c-1.2 0-2.1 1-2.1 2.1 0 1.2 1 2.1 2.1 2.1 1.2 0 2.1-1 2.1-2.1 0-1.2-1-2.1-2.1-2.1zm10.8-11.9c-.4 0-.7.3-.7.7s.3.7.7.7.7-.3.7-.7-.3-.7-.7-.7zm26.8 24c-.6 0-1.1.5-1.1 1.1s.5 1.1 1.1 1.1 1.1-.5 1.1-1.1-.5-1.1-1.1-1.1zm8.2 12.5c-.7 0-1.3.6-1.3 1.3s.6 1.3 1.3 1.3 1.3-.6 1.3-1.3-.6-1.3-1.3-1.3zm26.4-35.8c-1.1 0-2 .9-2 2s.9 2 2 2 2-.9 2-2-.9-2-2-2zm-56.4 64.1c-.7 0-1.2.5-1.2 1.2s.5 1.2 1.2 1.2 1.2-.5 1.2-1.2c0-.6-.5-1.2-1.2-1.2zm9.2-9.5c-.6 0-1 .5-1 1s.5 1 1 1 1-.5 1-1-.4-1-1-1zm-9.4-5.3c-.5 0-1 .4-1 1 0 .5.4 1 1 1 .5 0 1-.4 1-1-.1-.6-.5-1-1-1zm22.5 27.8c-1.6 0-2.8 1.3-2.8 2.8 0 1.6 1.3 2.8 2.8 2.8s2.8-1.3 2.8-2.8-1.3-2.8-2.8-2.8zm125.9-3c-.4 0-.7.3-.7.7s.3.7.7.7.7-.3.7-.7-.3-.7-.7-.7zm-1.3 31.6c-.9 0-1.6.7-1.6 1.6s.7 1.6 1.6 1.6 1.6-.7 1.6-1.6c-.1-.9-.8-1.6-1.6-1.6zm-440.8-468.6c-1.5 0-2.6 1.2-2.6 2.6 0 1.5 1.2 2.6 2.6 2.6s2.6-1.2 2.6-2.6c.1-1.4-1.1-2.6-2.6-2.6zm4.2-10.4c-.9 0-1.5.7-1.5 1.5s.7 1.5 1.5 1.5 1.5-.7 1.5-1.5-.6-1.5-1.5-1.5zm22.7 13c-.7 0-1.3.6-1.3 1.3s.6 1.3 1.3 1.3 1.3-.6 1.3-1.3-.5-1.3-1.3-1.3zm158.5-75.9c-.8 0-1.5.7-1.5 1.5s.7 1.5 1.5 1.5 1.5-.7 1.5-1.5-.6-1.5-1.5-1.5zm114 70.7c-.9 0-1.6.7-1.6 1.6s.7 1.6 1.6 1.6 1.6-.7 1.6-1.6-.7-1.6-1.6-1.6zm119.5-67.9c-1.4 0-2.6 1.2-2.6 2.6s1.2 2.6 2.6 2.6 2.6-1.2 2.6-2.6-1.1-2.6-2.6-2.6zm11.6 12.2c-1.4 0-2.6 1.2-2.6 2.6s1.2 2.6 2.6 2.6 2.6-1.2 2.6-2.6c0-1.5-1.2-2.6-2.6-2.6zm11.7 14.6c-.8 0-1.5.7-1.5 1.5s.7 1.5 1.5 1.5 1.5-.7 1.5-1.5c0-.9-.7-1.5-1.5-1.5zm14.1-48.6c-.9 0-1.7.7-1.7 1.7 0 .9.7 1.7 1.7 1.7s1.7-.7 1.7-1.7-.8-1.7-1.7-1.7zm-209.3-70.4c-.7 0-1.3.6-1.3 1.3s.6 1.3 1.3 1.3 1.3-.6 1.3-1.3-.6-1.3-1.3-1.3zm20.8-20.8c-.5 0-.9.4-.9.9s.4.9.9.9.9-.4.9-.9-.4-.9-.9-.9zm19.4-29.2c-.5 0-.9.4-.9.9s.4.9.9.9.9-.4.9-.9-.4-.9-.9-.9zm28.7 0c-.9 0-1.7.7-1.7 1.7s.7 1.7 1.7 1.7c.9 0 1.7-.7 1.7-1.7s-.7-1.7-1.7-1.7zm-20.7 120.4c-.9 0-1.7.7-1.7 1.7 0 .9.7 1.7 1.7 1.7.9 0 1.7-.7 1.7-1.7s-.8-1.7-1.7-1.7zm28.7-62.8c-.8 0-1.5.7-1.5 1.5s.7 1.5 1.5 1.5 1.5-.7 1.5-1.5-.7-1.5-1.5-1.5zm347.9-72.2c-.5 0-.8.4-.8.8 0 .5.4.8.8.8.5 0 .8-.4.8-.8.1-.4-.3-.8-.8-.8zm13.7 29.2c-.5 0-1 .4-1 1 0 .5.4 1 1 1s1-.4 1-1c0-.5-.5-1-1-1zm-8.1 69c-1.7 0-3 1.4-3 3 0 1.7 1.4 3 3 3 1.7 0 3-1.4 3-3 0-1.7-1.3-3-3-3zm-106.3-69c-.5 0-1 .4-1 1 0 .5.4 1 1 1s1-.4 1-1c0-.5-.5-1-1-1zm16.2-29.2c-.5 0-.8.4-.8.8 0 .5.4.8.8.8.5 0 .8-.4.8-.8.1-.4-.3-.8-.8-.8zm-180.5 352c-1.1 0-2 .9-2 2s.9 2 2 2 2-.9 2-2-.9-2-2-2zm17.9 11.4c-.9 0-1.7.7-1.7 1.7 0 .9.7 1.7 1.7 1.7.9 0 1.7-.7 1.7-1.7 0-.9-.8-1.7-1.7-1.7zm7.7 7c-.8 0-1.4.6-1.4 1.4s.6 1.4 1.4 1.4 1.4-.6 1.4-1.4-.6-1.4-1.4-1.4zm-15.7 46.5c-.8 0-1.5.7-1.5 1.5s.7 1.5 1.5 1.5 1.5-.7 1.5-1.5-.7-1.5-1.5-1.5zm-41.5 11c-1.1 0-2 .9-2 2s.9 2 2 2 2-.9 2-2c-.1-1.1-.9-2-2-2zm19 23.9c-1.5 0-2.6 1.2-2.6 2.6 0 1.5 1.2 2.6 2.6 2.6s2.6-1.2 2.6-2.6c.1-1.4-1.1-2.6-2.6-2.6zm-58.8-59.8c-.6 0-1.1.5-1.1 1.1s.5 1.1 1.1 1.1 1.1-.5 1.1-1.1-.5-1.1-1.1-1.1zm-509.2-243c-.9 0-1.7.7-1.7 1.7 0 .9.7 1.7 1.7 1.7s1.7-.7 1.7-1.7-.8-1.7-1.7-1.7zm2.5-9.8c-.5 0-.8.4-.8.8s.4.8.8.8.8-.4.8-.8-.3-.8-.8-.8zm10.2 13.1c-1 0-1.8.8-1.8 1.8s.8 1.8 1.8 1.8 1.8-.8 1.8-1.8-.8-1.8-1.8-1.8zm-240.4-30.6c-.5 0-.9.4-.9.9s.4.9.9.9.9-.4.9-.9-.4-.9-.9-.9zm11.9 17.5c-1.2 0-2.1.9-2.1 2.1s.9 2.1 2.1 2.1 2.1-.9 2.1-2.1c0-1.1-1-2.1-2.1-2.1zm-76.8-194.9c-.6 0-1.2.5-1.2 1.2 0 .6.5 1.2 1.2 1.2s1.2-.5 1.2-1.2-.5-1.2-1.2-1.2zm11.4-5.1c-1.1 0-1.9.9-1.9 1.9s.9 1.9 1.9 1.9c1.1 0 1.9-.9 1.9-1.9s-.9-1.9-1.9-1.9zm7.2-10.2c-.3 0-.6.3-.6.6s.3.6.6.6.6-.3.6-.6-.3-.6-.6-.6zm-32.2 105.7c-.6 0-1.1.5-1.1 1.1s.5 1.1 1.1 1.1 1.1-.5 1.1-1.1-.5-1.1-1.1-1.1zm113.3-56.9c-1 0-1.8.8-1.8 1.8s.8 1.8 1.8 1.8 1.8-.8 1.8-1.8c-.1-1-.8-1.8-1.8-1.8zm299.1-22.2c-.8 0-1.4.6-1.4 1.4s.6 1.4 1.4 1.4 1.4-.6 1.4-1.4-.7-1.4-1.4-1.4zm15.1-12.1c-.7 0-1.3.6-1.3 1.3s.6 1.3 1.3 1.3 1.3-.6 1.3-1.3c0-.8-.6-1.3-1.3-1.3zm4.4 45.2c-.8 0-1.4.6-1.4 1.4s.6 1.4 1.4 1.4 1.4-.6 1.4-1.4-.7-1.4-1.4-1.4zm-199.2 27.6c-1.2 0-2.3 1-2.3 2.3s1 2.3 2.3 2.3 2.3-1 2.3-2.3-1.1-2.3-2.3-2.3zm25.5-74c-1.5 0-2.7 1.2-2.7 2.7s1.2 2.7 2.7 2.7 2.7-1.2 2.7-2.7-1.2-2.7-2.7-2.7zm-4 71.5c-.7 0-1.3 0-1.3 0s.6 0 1.3 0 1.3 0 1.3 0-.6 0-1.3 0zm-2.9-23.7c-.4 0-.7.3-.7.7s.3.7.7.7.7-.3.7-.7-.3-.7-.7-.7zm83.9 20.2c-1 0-1.8.8-1.8 1.8s.8 1.8 1.8 1.8 1.8-.8 1.8-1.8-.8-1.8-1.8-1.8zm17.9-52c-.7 0-1.3.6-1.3 1.3s.6 1.3 1.3 1.3 1.3-.6 1.3-1.3c-.1-.7-.6-1.3-1.3-1.3zm36.4 77.8c-.6 0-1.1.5-1.1 1.1s.5 1.1 1.1 1.1 1.1-.5 1.1-1.1c.1-.6-.4-1.1-1.1-1.1zm-899.9-89.2c-.7 0-1.2.5-1.2 1.2s.5 1.2 1.2 1.2 1.2-.5 1.2-1.2-.5-1.2-1.2-1.2zm6.1 4.5c-.7 0-1.2.5-1.2 1.2s.5 1.2 1.2 1.2 1.2-.5 1.2-1.2-.5-1.2-1.2-1.2zm9.1-13.2s-.5 0-1.1 0-1.1 0-1.1 0 .5 0 1.1 0 1.1 0 1.1 0zm-18.8 49.5c-.3 0-.5.2-.5.5s.2.5.5.5.5-.2.5-.5-.3-.5-.5-.5zm9.1-7.4c-.3 0-.6.3-.6.6s.3.6.6.6.6-.3.6-.6-.3-.6-.6-.6zm-8.6-3.9c-.5 0-1 .4-1 1 0 .5.4 1 1 1s1-.4 1-1c-.1-.6-.5-1-1-1zm40.1 23.8c-.5 0-1 .4-1 1s.4 1 1 1 1-.4 1-1-.5-1-1-1zm14-25.1c-.6 0-1.1.5-1.1 1.1s.5 1.1 1.1 1.1 1.1-.5 1.1-1.1-.5-1.1-1.1-1.1zm3.9 126.2c-.5 0-.8.4-.8.8s.4.8.8.8c.5 0 .8-.4.8-.8s-.4-.8-.8-.8zm21.6 20.9c-.9 0-1.6.7-1.6 1.6s.7 1.6 1.6 1.6 1.6-.7 1.6-1.6-.7-1.6-1.6-1.6zm52.1-61c-.6 0-1 .5-1 1s.5 1 1 1 1-.5 1-1-.4-1-1-1zm-7.3 20.9c-1 0-1.8.8-1.8 1.8s.8 1.8 1.8 1.8 1.8-.8 1.8-1.8-.8-1.8-1.8-1.8zm-22.4-24.4c-.6 0-1.1.5-1.1 1.1s.5 1.1 1.1 1.1 1.1-.5 1.1-1.1-.5-1.1-1.1-1.1zm114 122c-1 0-1.8.8-1.8 1.8s.8 1.8 1.8 1.8 1.8-.8 1.8-1.8-.8-1.8-1.8-1.8zm229.9 178.3c-.7 0-1.2.6-1.2 1.2s.6 1.2 1.2 1.2 1.2-.6 1.2-1.2-.5-1.2-1.2-1.2zm5.2 9.6c-.5 0-.9.4-.9.9s.4.9.9.9.9-.4.9-.9c0-.6-.4-.9-.9-.9zm28-7.1c-.4 0-.7.3-.7.7s.3.7.7.7.7-.3.7-.7c-.1-.4-.4-.7-.7-.7zm15.6 27.7c-.9 0-1.6.7-1.6 1.6s.7 1.6 1.6 1.6 1.6-.7 1.6-1.6-.7-1.6-1.6-1.6zm19.9-12.9c-.5 0-.9.4-.9.9s.4.9.9.9.9-.4.9-.9c0-.4-.4-.9-.9-.9zm35.1 71.1c-.7 0-1.2.5-1.2 1.2s.5 1.2 1.2 1.2 1.2-.5 1.2-1.2-.6-1.2-1.2-1.2zm-56.7 37.4c-.5 0-.9.4-.9.9s.4.9.9.9.9-.4.9-.9-.4-.9-.9-.9zm5.4-7.3c-.3 0-.6.2-.6.6 0 .3.2.6.6.6s.6-.2.6-.6-.3-.6-.6-.6zm-26.6-7.4c-.8 0-1.4.6-1.4 1.4s.6 1.4 1.4 1.4 1.4-.6 1.4-1.4-.6-1.4-1.4-1.4zm25.5 43.1c-.3 0-.6.3-.6.6s.3.6.6.6.6-.3.6-.6c0-.4-.2-.6-.6-.6zm-130.5 9.5c-.4 0-.7.3-.7.7s.3.7.7.7.7-.3.7-.7-.3-.7-.7-.7zm-2.8-39.6c-.7 0-1.3.6-1.3 1.3s.6 1.3 1.3 1.3 1.3-.6 1.3-1.3-.6-1.3-1.3-1.3zm6.5 3.6c-.7 0-1.3.6-1.3 1.3s.6 1.3 1.3 1.3 1.3-.6 1.3-1.3-.6-1.3-1.3-1.3zm3.2 4.2c-.3 0-.6.3-.6.6s.3.6.6.6.6-.3.6-.6c0-.4-.3-.6-.6-.6zm-17.3 8.8c-.7 0-1.3.6-1.3 1.3s.6 1.3 1.3 1.3 1.3-.6 1.3-1.3-.5-1.3-1.3-1.3zm-16.5-68.1c-.4 0-.8.4-.8.8s.4.8.8.8.8-.4.8-.8-.3-.8-.8-.8zm14-4.7c-.6 0-1.2.5-1.2 1.2 0 .6.5 1.2 1.2 1.2s1.2-.5 1.2-1.2-.5-1.2-1.2-1.2zm-327.7 374.7c-1 0-1.7.8-1.7 1.7 0 1 .8 1.7 1.7 1.7s1.7-.8 1.7-1.7c.1-.9-.7-1.7-1.7-1.7zm6.7-12c-.4 0-.7.3-.7.7s.3.7.7.7.7-.3.7-.7-.3-.7-.7-.7zm-25.3-14c-.8 0-1.4.6-1.4 1.4s.6 1.4 1.4 1.4 1.4-.6 1.4-1.4c0-.7-.6-1.4-1.4-1.4zm4.9 16.8c-.7 0-1.2.5-1.2 1.2s.5 1.2 1.2 1.2 1.2-.5 1.2-1.2c-.1-.7-.6-1.2-1.2-1.2zm36.2-52.2c-.4 0-.8.4-.8.8s.4.8.8.8.8-.4.8-.8-.3-.8-.8-.8zm35.7 63.1c-.6 0-1.1.5-1.1 1.1s.5 1.1 1.1 1.1 1.1-.5 1.1-1.1-.5-1.1-1.1-1.1zm-8 36.4c-.8 0-1.5.7-1.5 1.5s.7 1.5 1.5 1.5 1.5-.7 1.5-1.5c-.1-.8-.7-1.5-1.5-1.5zm14-7.2c-.6 0-1.1.5-1.1 1.1s.5 1.1 1.1 1.1 1.1-.5 1.1-1.1-.5-1.1-1.1-1.1zm5.3-12.7c-.4 0-.7.3-.7.7s.3.7.7.7.7-.3.7-.7-.3-.7-.7-.7zm-86.2 136.6c-.6 0-1 .4-1 1s.4 1 1 1 1-.4 1-1-.4-1-1-1zm5.1-10.7c-.4 0-.8.4-.8.8s.4.8.8.8.8-.4.8-.8-.4-.8-.8-.8zm-14.3 6.5c-.6 0-1 .4-1 1s.4 1 1 1 1-.4 1-1-.5-1-1-1zm6.4-23.4c-1 0-1.9.8-1.9 1.9 0 1 .8 1.9 1.9 1.9s1.9-.8 1.9-1.9c-.1-1.1-.9-1.9-1.9-1.9zm28 7.9c-.6 0-1 .4-1 1s.4 1 1 1 1-.4 1-1-.4-1-1-1zm6.5 27.7c-1 0-1.7.8-1.7 1.7 0 1 .8 1.7 1.7 1.7s1.7-.8 1.7-1.7-.7-1.7-1.7-1.7zm-11.8 16.5c-.8 0-1.4.6-1.4 1.4s.6 1.4 1.4 1.4 1.4-.6 1.4-1.4-.6-1.4-1.4-1.4zm74.7 36.6c-.9 0-1.6.7-1.6 1.6s.7 1.6 1.6 1.6 1.6-.7 1.6-1.6-.7-1.6-1.6-1.6zm9-13.4c-.6 0-1.1.5-1.1 1.1s.5 1.1 1.1 1.1 1.1-.5 1.1-1.1-.5-1.1-1.1-1.1zm9.1 16.6c-.7 0-1.2.5-1.2 1.2s.5 1.2 1.2 1.2 1.2-.5 1.2-1.2-.5-1.2-1.2-1.2zm6.8 9.6c-1.5 0-2.7 1.2-2.7 2.7s1.2 2.7 2.7 2.7 2.7-1.2 2.7-2.7-1.2-2.7-2.7-2.7zm5.6-18.3c-.7 0-1.2.5-1.2 1.2s.5 1.2 1.2 1.2 1.2-.5 1.2-1.2-.5-1.2-1.2-1.2zm69.6-59.8c-.8 0-1.4.6-1.4 1.4s.6 1.4 1.4 1.4 1.4-.6 1.4-1.4c-.1-.8-.7-1.4-1.4-1.4zm11.9-10.5c-.8 0-1.4.6-1.4 1.4s.6 1.4 1.4 1.4 1.4-.6 1.4-1.4-.6-1.4-1.4-1.4zm-55.8-37.1c-.8 0-1.4.6-1.4 1.4s.6 1.4 1.4 1.4 1.4-.6 1.4-1.4c.1-.8-.6-1.4-1.4-1.4zm19-13.7c-.4 0-.7.3-.7.7s.3.7.7.7.7-.3.7-.7c.1-.4-.2-.7-.7-.7zm19.4 23.9c-1 0-1.9.8-1.9 1.9 0 1 .8 1.9 1.9 1.9 1 0 1.9-.8 1.9-1.9-.1-1.1-.9-1.9-1.9-1.9zm334.9-42.5c-1.5 0-2.7 1.2-2.7 2.7s1.2 2.7 2.7 2.7 2.7-1.2 2.7-2.7-1.2-2.7-2.7-2.7zm-41.1-21.2c-1.1 0-2.1.9-2.1 2.1s.9 2.1 2.1 2.1c1.1 0 2.1-.9 2.1-2.1s-1-2.1-2.1-2.1zm16.1-10.7c-.5 0-.9.4-.9.9s.4.9.9.9.9-.4.9-.9-.4-.9-.9-.9zm-192 153.9c-1.3 0-2.4 1.1-2.4 2.4s1.1 2.4 2.4 2.4 2.4-1.1 2.4-2.4-1.1-2.4-2.4-2.4zm11.1-23.1c-1.2 0-2.2 1-2.2 2.2s1 2.2 2.2 2.2 2.2-1 2.2-2.2-.9-2.2-2.2-2.2zm12.4 32.9c-1.2 0-2.1.9-2.1 2.1s.9 2.1 2.1 2.1 2.1-.9 2.1-2.1-1-2.1-2.1-2.1zm-16.5 24.9c-1 0-1.9.8-1.9 1.9 0 1 .8 1.9 1.9 1.9 1 0 1.9-.8 1.9-1.9s-.9-1.9-1.9-1.9zm230.2-76.6c-.8 0-1.5.7-1.5 1.5s.7 1.5 1.5 1.5 1.5-.7 1.5-1.5-.7-1.5-1.5-1.5zm24-9c-.8 0-1.4.6-1.4 1.4s.6 1.4 1.4 1.4 1.4-.6 1.4-1.4-.6-1.4-1.4-1.4zm-193.6 19.8c-1 0-1.9.8-1.9 1.9 0 1 .8 1.9 1.9 1.9 1 0 1.9-.8 1.9-1.9s-.9-1.9-1.9-1.9zm31.4-307.9c-.5 0-1 .4-1 1s.4 1 1 1c.5 0 1-.4 1-1s-.4-1-1-1zm3.1-7.1c-.2 0-.4.2-.4.4s.2.4.4.4.4-.2.4-.4c-.1-.2-.2-.4-.4-.4zm34.7 14.2c-.3 0-.5.2-.5.5s.2.5.5.5.5-.2.5-.5-.2-.5-.5-.5zm56 42.1c-.3 0-.5.2-.5.5s.2.5.5.5.5-.2.5-.5-.2-.5-.5-.5zm45.8-11.4c-.4 0-.7.3-.7.7s.3.7.7.7.7-.3.7-.7-.3-.7-.7-.7zm6.3-6.8c-.3 0-.5.2-.5.5s.2.5.5.5.5-.2.5-.5-.2-.5-.5-.5zm6.5 23.1c-.7 0-1.3.6-1.3 1.3s.6 1.3 1.3 1.3 1.3-.6 1.3-1.3-.6-1.3-1.3-1.3zm-37.3 27.9c-.4 0-.8.4-.8.8s.4.8.8.8.8-.4.8-.8-.4-.8-.8-.8zm116 7.8c-.2 0-.5.2-.5.5s.2.5.5.5c.2 0 .5-.2.5-.5s-.2-.5-.5-.5zm5 12.4c-.6 0-1 .5-1 1s.5 1 1 1c.6 0 1-.5 1-1s-.5-1-1-1zm8.6-4.1c-.5 0-.9.4-.9.9s.4.9.9.9.9-.4.9-.9-.4-.9-.9-.9zm4.5.9c-.2 0-.5.2-.5.5 0 .2.2.5.5.5.2 0 .5-.2.5-.5-.1-.3-.3-.5-.5-.5zm4.4 14.3c-1 0-1.8.8-1.8 1.8s.8 1.8 1.8 1.8 1.8-.8 1.8-1.8-.8-1.8-1.8-1.8zm47.1-134.4c-.2 0-.4.2-.4.4s.2.4.4.4.4-.2.4-.4-.2-.4-.4-.4zm10.2-10.3c-.8 0-1.4.6-1.4 1.4s.6 1.4 1.4 1.4 1.4-.6 1.4-1.4-.6-1.4-1.4-1.4zm-15.3-30.1c-.5 0-.8.4-.8.8s.4.8.8.8c.5 0 .8-.4.8-.8s-.3-.8-.8-.8zm13.2-4.8c-.4 0-.8.3-.8.8 0 .4.3.8.8.8s.8-.3.8-.8c-.1-.5-.4-.8-.8-.8zm1104.8-485.7c-.6 0-1.1.5-1.1 1.1s.5 1.1 1.1 1.1 1.1-.5 1.1-1.1-.5-1.1-1.1-1.1zm.5-14.2c-.3 0-.6.3-.6.6s.3.6.6.6.6-.3.6-.6-.2-.6-.6-.6zm29.2 19.5c-.8 0-1.5.7-1.5 1.5s.7 1.5 1.5 1.5 1.5-.7 1.5-1.5c0-.9-.7-1.5-1.5-1.5zm83.8-170.7c-1.1 0-2 .9-2 2s.9 2 2 2 2-.9 2-2-.9-2-2-2zm7.2 11.3c-.6 0-1.1.5-1.1 1.1s.5 1.1 1.1 1.1 1.1-.5 1.1-1.1-.5-1.1-1.1-1.1zm-15.5 8.2c-.3 0-.6.3-.6.6s.3.6.6.6.6-.3.6-.6-.3-.6-.6-.6zm-17.7 167.4c-.7 0-1.2.5-1.2 1.2s.5 1.2 1.2 1.2 1.2-.5 1.2-1.2-.6-1.2-1.2-1.2zm15.6 11.8c-.8 0-1.4.6-1.4 1.4s.6 1.4 1.4 1.4 1.4-.6 1.4-1.4-.6-1.4-1.4-1.4zm29.1-75.1c-1.1 0-2 .9-2 2s.9 2 2 2 2-.9 2-2-.9-2-2-2zm-137.4-90.3c-.4 0-.8.4-.8.8s.4.8.8.8.8-.4.8-.8-.3-.8-.8-.8zm-43.6 27.6c-.8 0-1.5.7-1.5 1.5s.7 1.5 1.5 1.5 1.5-.7 1.5-1.5-.6-1.5-1.5-1.5zm15.2 261c-1.1 0-2 .9-2 2s.9 2 2 2 2-.9 2-2-.9-2-2-2zm39.6-23.2c-.8 0-1.4.6-1.4 1.4s.6 1.4 1.4 1.4 1.4-.6 1.4-1.4-.6-1.4-1.4-1.4zm119.7 80.5c-.7 0-1.2.6-1.2 1.2 0 .7.6 1.2 1.2 1.2s1.2-.6 1.2-1.2c0-.7-.5-1.2-1.2-1.2zm7.1 16.2c-1.2 0-2.2 1-2.2 2.2s1 2.2 2.2 2.2 2.2-1 2.2-2.2-1-2.2-2.2-2.2zm-46.4 32.5c-1 0-1.7.8-1.7 1.7s.8 1.7 1.7 1.7 1.7-.8 1.7-1.7-.8-1.7-1.7-1.7zm-187.5 32.5c-.5 0-.8.4-.8.8s.4.8.8.8.8-.4.8-.8-.4-.8-.8-.8zm6.3 6.1c-.8 0-1.4.6-1.4 1.4s.6 1.4 1.4 1.4 1.4-.6 1.4-1.4-.6-1.4-1.4-1.4zm17.7-21.9c-.9 0-1.6.7-1.6 1.6s.7 1.6 1.6 1.6 1.6-.7 1.6-1.6-.7-1.6-1.6-1.6zm21 17.5c-.4 0-.7.3-.7.7s.3.7.7.7.7-.3.7-.7-.3-.7-.7-.7zm4.9 7.3c-.8 0-1.5.7-1.5 1.5s.7 1.5 1.5 1.5 1.5-.7 1.5-1.5-.7-1.5-1.5-1.5zm6.1 11.4c-.8 0-1.5.7-1.5 1.5s.7 1.5 1.5 1.5 1.5-.7 1.5-1.5-.7-1.5-1.5-1.5zm6.6 12.6c-.7 0-1.2.5-1.2 1.2s.5 1.2 1.2 1.2 1.2-.5 1.2-1.2-.5-1.2-1.2-1.2zm1.8-66.6c-.3 0-.6.3-.6.6s.3.6.6.6.6-.3.6-.6c-.1-.4-.3-.6-.6-.6zm31.8-5.9c-.9 0-1.7.8-1.7 1.7s.8 1.7 1.7 1.7 1.7-.8 1.7-1.7-.8-1.7-1.7-1.7zm50 86.5c-.4 0-.8.3-.8.8s.3.8.8.8c.4 0 .8-.3.8-.8s-.4-.8-.8-.8zm-.4 11.3c-.5 0-.9.4-.9.9s.4.9.9.9.9-.4.9-.9-.4-.9-.9-.9zm41.4 31.1c-.8 0-1.5.7-1.5 1.5s.7 1.5 1.5 1.5 1.5-.7 1.5-1.5c0-.9-.7-1.5-1.5-1.5zm28-65.9c-.5 0-.9.4-.9.9s.4.9.9.9.9-.4.9-.9-.4-.9-.9-.9zm-779.8 657.2c-1.1 0-2 .9-2 2s.9 2 2 2 2-.9 2-2-.8-2-2-2zm19.9-6.1c-1.2 0-2.1 1-2.1 2.1s1 2.1 2.1 2.1 2.2-1 2.2-2.1-1-2.1-2.2-2.1zm11.8 61.7c-2.7 0-4.8 2.2-4.8 4.8 0 2.7 2.2 4.8 4.8 4.8 2.7 0 4.8-2.2 4.8-4.8s-2.2-4.8-4.8-4.8zm72.6 2.6c-1.1 0-2 .9-2 2s.9 2 2 2 2-.9 2-2-.9-2-2-2zm13 23.8c-1.9 0-3.4 1.5-3.4 3.4s1.5 3.4 3.4 3.4 3.4-1.5 3.4-3.4-1.5-3.4-3.4-3.4zm61.7-53.2c-1 0-1.9.8-1.9 1.9 0 1 .8 1.9 1.9 1.9s1.9-.8 1.9-1.9c0-1-.9-1.9-1.9-1.9zm24-45c-1.2 0-2.1 1-2.1 2.1s1 2.1 2.1 2.1 2.2-1 2.2-2.1-1-2.1-2.2-2.1zm-39.3 22.8c-1 0-1.8.8-1.8 1.8s.8 1.8 1.8 1.8 1.8-.8 1.8-1.8-.8-1.8-1.8-1.8zm-978 82.6c-1 0-1.9.8-1.9 1.9s.8 1.9 1.9 1.9c1 0 1.9-.8 1.9-1.9s-.9-1.9-1.9-1.9zm9-21.3c-1.4 0-2.5 1.1-2.5 2.5s1.1 2.5 2.5 2.5 2.5-1.1 2.5-2.5-1.1-2.5-2.5-2.5zm-27.6-7.4c-1.6 0-2.9 1.3-2.9 2.9s1.3 2.9 2.9 2.9 2.9-1.3 2.9-2.9-1.3-2.9-2.9-2.9zm59.9 48.1c-2.4 0-4.4 2-4.4 4.4s2 4.4 4.4 4.4 4.4-2 4.4-4.4-2-4.4-4.4-4.4zm98.2-38.2c-1.5 0-2.7 1.2-2.7 2.7s1.2 2.7 2.7 2.7 2.7-1.2 2.7-2.7c.1-1.5-1.1-2.7-2.7-2.7zm48.4 81.3c-2.5 0-4.5 2-4.5 4.5s2 4.5 4.5 4.5 4.5-2 4.5-4.5c-.1-2.5-2.1-4.5-4.5-4.5zm103.8 24.7c-1.8 0-3.2 1.4-3.2 3.2s1.4 3.2 3.2 3.2 3.2-1.4 3.2-3.2c0-1.7-1.5-3.2-3.2-3.2zm20.5-29.2c-1.2 0-2.2 1-2.2 2.2s1 2.2 2.2 2.2 2.2-1 2.2-2.2-1-2.2-2.2-2.2zm9.3 13.4c-1 0-1.9.8-1.9 1.9s.8 1.9 1.9 1.9 1.9-.8 1.9-1.9-.9-1.9-1.9-1.9zm19.2-134.3c-2.3 0-4.2 1.9-4.2 4.2s1.9 4.2 4.2 4.2 4.2-1.9 4.2-4.2-1.9-4.2-4.2-4.2zm-228.2 216c-1.4 0-2.5 1.1-2.5 2.5s1.1 2.5 2.5 2.5 2.5-1.1 2.5-2.5-1.1-2.5-2.5-2.5zm-158.5-11.4c-1.6 0-3 1.3-3 3 0 1.6 1.3 3 3 3s3-1.3 3-3c0-1.6-1.4-3-3-3zm10.2-14.3c-1.8 0-3.2 1.4-3.2 3.2s1.4 3.2 3.2 3.2 3.2-1.4 3.2-3.2-1.5-3.2-3.2-3.2zm18.7 20.3c-.8 0-1.5.7-1.5 1.5s.7 1.5 1.5 1.5 1.5-.7 1.5-1.5c-.1-.9-.7-1.5-1.5-1.5zm-128.5-80.8c-2.2 0-4 1.8-4 4s1.8 4 4 4 4-1.8 4-4-1.8-4-4-4zm8.4 36.7c-2.5 0-4.5 2-4.5 4.5s2 4.5 4.5 4.5 4.5-2 4.5-4.5-2-4.5-4.5-4.5zm-134.2 77.3c-1.4 0-2.5 1.1-2.5 2.5s1.1 2.5 2.5 2.5 2.5-1.1 2.5-2.5-1.2-2.5-2.5-2.5zm11.6-20.3c-1.2 0-2.2 1-2.2 2.2s1 2.2 2.2 2.2 2.2-1 2.2-2.2-1-2.2-2.2-2.2zm12.9 16.8c-1 0-1.7.8-1.7 1.7 0 1 .8 1.7 1.7 1.7 1 0 1.7-.8 1.7-1.7s-.8-1.7-1.7-1.7zm-61.9-77.3c-1 0-1.7.8-1.7 1.7 0 1 .8 1.7 1.7 1.7s1.7-.8 1.7-1.7-.8-1.7-1.7-1.7zm22.9-48c-1.3 0-2.4 1.1-2.4 2.4s1.1 2.4 2.4 2.4 2.4-1.1 2.4-2.4c0-1.4-1.1-2.4-2.4-2.4zm16.7 10.4c-1.2 0-2.2 1-2.2 2.2s1 2.2 2.2 2.2 2.2-1 2.2-2.2-1-2.2-2.2-2.2zm-12.8 25.2c-.8 0-1.5.7-1.5 1.5s.7 1.5 1.5 1.5 1.5-.7 1.5-1.5-.6-1.5-1.5-1.5zm40.5-77.7c-2.1 0-3.7 1.7-3.7 3.7 0 2.1 1.7 3.7 3.7 3.7 2.1 0 3.7-1.7 3.7-3.7.1-2.1-1.6-3.7-3.7-3.7zm102.1 226.4c-1.2 0-2.2 1-2.2 2.2s1 2.2 2.2 2.2 2.2-1 2.2-2.2-1-2.2-2.2-2.2zm437 54.5c-1.5 0-2.7 1.2-2.7 2.7s1.2 2.7 2.7 2.7 2.7-1.2 2.7-2.7-1.2-2.7-2.7-2.7zm14.6-24.8c-1.2 0-2.2 1-2.2 2.2s1 2.2 2.2 2.2 2.2-1 2.2-2.2-1-2.2-2.2-2.2zm-20.5 8.4c-1.8 0-3.2 1.4-3.2 3.2s1.4 3.2 3.2 3.2 3.2-1.4 3.2-3.2c0-1.7-1.5-3.2-3.2-3.2zm130.7-105c-2.3 0-4.1 1.8-4.1 4.1s1.8 4.1 4.1 4.1 4.1-1.8 4.1-4.1-1.9-4.1-4.1-4.1zm22.8 39.1c-2.6 0-4.7 2.1-4.7 4.7s2.1 4.7 4.7 4.7 4.7-2.1 4.7-4.7-2.1-4.7-4.7-4.7zm173.4-66.3c-1.1 0-2 .9-2 2s.9 2 2 2 2-.9 2-2-.9-2-2-2zm8.5 18.3c-1.4 0-2.6 1.2-2.6 2.6s1.2 2.6 2.6 2.6 2.6-1.2 2.6-2.6-1.1-2.6-2.6-2.6zm22.1-2c-1.3 0-2.4 1.1-2.4 2.4s1.1 2.4 2.4 2.4 2.4-1.1 2.4-2.4c-.1-1.3-1.1-2.4-2.4-2.4zm-36.3 25.8c-2.6 0-4.7 2.1-4.7 4.7s2.1 4.7 4.7 4.7 4.7-2.1 4.7-4.7-2.1-4.7-4.7-4.7zm39.8-67.9c-2 0-3.5 1.6-3.5 3.5s1.6 3.5 3.5 3.5c2 0 3.5-1.6 3.5-3.5s-1.5-3.5-3.5-3.5zm48.1 132.3c-2 0-3.6 1.6-3.6 3.6s1.6 3.6 3.6 3.6 3.6-1.6 3.6-3.6-1.6-3.6-3.6-3.6zm-33.8 53c-2.2 0-4 1.8-4 4s1.8 4 4 4 4-1.8 4-4-1.9-4-4-4zm-169.5 20.8c-2.2 0-4 1.8-4 4s1.8 4 4 4 4-1.8 4-4-1.8-4-4-4zm392-180.3c-1.6 0-3 1.3-3 3 0 1.6 1.3 3 3 3 1.6 0 3-1.3 3-3-.1-1.6-1.4-3-3-3zm23.5 37.8c-1.5 0-2.7 1.2-2.7 2.7s1.2 2.7 2.7 2.7 2.7-1.2 2.7-2.7-1.2-2.7-2.7-2.7zm54.7 110.8c-1.6 0-3 1.3-3 3 0 1.6 1.3 3 3 3 1.6 0 3-1.3 3-3s-1.4-3-3-3zm17-21.3c-1.6 0-2.9 1.3-2.9 2.9s1.3 2.9 2.9 2.9 2.9-1.3 2.9-2.9-1.3-2.9-2.9-2.9zm-18.5-9.4c-.8 0-1.5.7-1.5 1.5s.7 1.5 1.5 1.5 1.5-.7 1.5-1.5c0-.9-.7-1.5-1.5-1.5zm-13.9 22.3c-1.1 0-2 .9-2 2s.9 2 2 2 2-.9 2-2c0-1.2-.9-2-2-2zm88.5-16.9c-2.9 0-5.2 2.3-5.2 5.2s2.3 5.2 5.2 5.2 5.2-2.3 5.2-5.2-2.3-5.2-5.2-5.2zm18.6-71.3c-2.5 0-4.5 2-4.5 4.5s2 4.5 4.5 4.5 4.5-2 4.5-4.5c-.1-2.5-2.1-4.5-4.5-4.5zm160.9 96.6c-2.2 0-4 1.8-4 4s1.8 4 4 4 4-1.8 4-4-1.8-4-4-4zm12.2-15.5c-2.3 0-4.2 1.9-4.2 4.2s1.9 4.2 4.2 4.2 4.2-1.9 4.2-4.2-1.9-4.2-4.2-4.2zm33.7-53.9c-1.2 0-2.2 1-2.2 2.2s1 2.2 2.2 2.2 2.2-1 2.2-2.2-1-2.2-2.2-2.2zm-93.1 2.2c-2.4 0-4.3 1.9-4.3 4.3s1.9 4.3 4.3 4.3 4.3-1.9 4.3-4.3c0-2.3-1.9-4.3-4.3-4.3zm108.7-78c-2.7 0-5 2.2-5 5s2.2 5 5 5 5-2.2 5-5-2.2-5-5-5zm66.5-162c-1.4 0-2.6 1.2-2.6 2.6s1.2 2.6 2.6 2.6 2.6-1.2 2.6-2.6-1.1-2.6-2.6-2.6zm-13.2 18.3c-1.8 0-3.2 1.4-3.2 3.2s1.4 3.2 3.2 3.2 3.2-1.4 3.2-3.2c0-1.7-1.4-3.2-3.2-3.2zm-162.8 64.4c-1.9 0-3.5 1.6-3.5 3.5s1.6 3.5 3.5 3.5 3.5-1.6 3.5-3.5-1.6-3.5-3.5-3.5zm204.1-21.8c-1.1 0-2 .9-2 2s.9 2 2 2 2-.9 2-2-.9-2-2-2zm28.5-27.2c-2.1 0-3.7 1.7-3.7 3.7s1.7 3.7 3.7 3.7 3.7-1.7 3.7-3.7-1.6-3.7-3.7-3.7zm129.6-182.3c-2.2 0-4 1.8-4 4s1.8 4 4 4 4-1.8 4-4c0-2.3-1.8-4-4-4zm-23 21.8c-1.8 0-3.2 1.4-3.2 3.2s1.4 3.2 3.2 3.2 3.2-1.4 3.2-3.2-1.5-3.2-3.2-3.2zm-123.8 11.4c-1.9 0-3.5 1.6-3.5 3.5s1.6 3.5 3.5 3.5 3.5-1.6 3.5-3.5-1.6-3.5-3.5-3.5zm123.6 74.3c0 1.6 1.3 3 3 3s3-1.3 3-3-1.3-3-3-3-3 1.4-3 3zm-1617.6 384.2c-.8 0-1.4.6-1.4 1.4s.6 1.4 1.4 1.4 1.4-.6 1.4-1.4-.6-1.4-1.4-1.4zm-19.3-79.2c-.9 0-1.6.7-1.6 1.6s.7 1.6 1.6 1.6 1.6-.7 1.6-1.6-.8-1.6-1.6-1.6zm0 19.1c-.9 0-1.7.7-1.7 1.7 0 .9.7 1.7 1.7 1.7s1.7-.7 1.7-1.7-.7-1.7-1.7-1.7zm188.1-44.2c-.9 0-1.6.7-1.6 1.6s.7 1.6 1.6 1.6 1.6-.7 1.6-1.6-.7-1.6-1.6-1.6zm-.8 8.9c-.4 0-.8.4-.8.8s.4.8.8.8.8-.4.8-.8-.4-.8-.8-.8zm231.9-44.5c-1.1 0-2 .9-2 2s.9 2 2 2 2-.9 2-2-.9-2-2-2zm1 13c-.5 0-1 .4-1 1s.4 1 1 1 1-.4 1-1-.5-1-1-1zm197.8-136.3c-1.1 0-1.9.9-1.9 1.9 0 1.1.9 1.9 1.9 1.9s1.9-.9 1.9-1.9c.1-1.1-.8-1.9-1.9-1.9zm27.7-17.9c-1 0-1.8.8-1.8 1.8s.8 1.8 1.8 1.8 1.8-.8 1.8-1.8-.8-1.8-1.8-1.8zm-48.3 1.7c-1 0-1.9.8-1.9 1.9 0 1 .8 1.9 1.9 1.9s1.9-.8 1.9-1.9c0-1-.9-1.9-1.9-1.9zm-406 298.9c-.9 0-1.7.8-1.7 1.7s.8 1.7 1.7 1.7 1.7-.8 1.7-1.7-.8-1.7-1.7-1.7zm15.5-13.5c-1.1 0-2 .9-2 2s.9 2 2 2 2-.9 2-2-.9-2-2-2zm11 13.5c-.5 0-.8.4-.8.8s.4.8.8.8.8-.4.8-.8-.4-.8-.8-.8zm1508.7-12.5c-.8 0-1.4.6-1.4 1.4s.6 1.4 1.4 1.4 1.4-.6 1.4-1.4-.6-1.4-1.4-1.4zm8-12.2c-.9 0-1.7.8-1.7 1.7s.8 1.7 1.7 1.7 1.7-.8 1.7-1.7-.8-1.7-1.7-1.7zm-15.8 1.7c-.8 0-1.4.6-1.4 1.4s.6 1.4 1.4 1.4 1.4-.6 1.4-1.4c0-.7-.6-1.4-1.4-1.4zm-61.1 13.3c-1 0-1.7.8-1.7 1.7 0 1 .8 1.7 1.7 1.7 1 0 1.7-.8 1.7-1.7.1-.9-.7-1.7-1.7-1.7zm26.9-48.3c-.7 0-1.3.6-1.3 1.3s.6 1.3 1.3 1.3 1.3-.6 1.3-1.3-.6-1.3-1.3-1.3zm47.5-40.2c-2.3 0-4.1 1.8-4.1 4.1s1.8 4.1 4.1 4.1 4.1-1.8 4.1-4.1c.1-2.2-1.8-4.1-4.1-4.1zm-122.3-38.8c-1.5 0-2.7 1.2-2.7 2.7s1.2 2.7 2.7 2.7 2.7-1.2 2.7-2.7-1.2-2.7-2.7-2.7zm14-10.8c-.7 0-1.2.5-1.2 1.2s.5 1.2 1.2 1.2 1.2-.5 1.2-1.2-.5-1.2-1.2-1.2zm-17.7-4c-2 0-3.7 1.7-3.7 3.7s1.7 3.7 3.7 3.7 3.7-1.7 3.7-3.7-1.7-3.7-3.7-3.7zm124.8-124.4c-1.6 0-2.9 1.3-2.9 2.9s1.3 2.9 2.9 2.9 2.9-1.3 2.9-2.9-1.3-2.9-2.9-2.9zm-37.8 16.5c-.6 0-1 .5-1 1 0 .6.5 1 1 1 .6 0 1-.5 1-1 0-.6-.4-1-1-1zm11-32.7c-1.2 0-2.2 1-2.2 2.2s1 2.2 2.2 2.2 2.2-1 2.2-2.2-1-2.2-2.2-2.2zm-261.2-1284.2c-1.1 0-2 .9-2 2s.9 2 2 2 2-.9 2-2-.8-2-2-2zm19.3-23.5c-.9 0-1.5.7-1.5 1.5 0 .9.7 1.5 1.5 1.5.9 0 1.5-.7 1.5-1.5.1-.8-.6-1.5-1.5-1.5zm15 23.5c-1.1 0-2 .9-2 2s.9 2 2 2 2-.9 2-2-.9-2-2-2zm-153.1-147.5c-2.1 0-3.9 1.7-3.9 3.9 0 2.1 1.7 3.9 3.9 3.9s3.9-1.7 3.9-3.9c-.1-2.1-1.8-3.9-3.9-3.9zm18.9-8.7c-1.7 0-3 1.3-3 3s1.3 3 3 3 3-1.3 3-3-1.3-3-3-3zm8 23.2c-.5 0-.9.4-.9.9s.4.9.9.9.9-.4.9-.9-.4-.9-.9-.9zm339.5-85.7c-1.4 0-2.6 1.2-2.6 2.6s1.2 2.6 2.6 2.6 2.6-1.2 2.6-2.6-1.2-2.6-2.6-2.6zm23.4 24.8c-1.7 0-3.1 1.4-3.1 3.1s1.4 3.1 3.1 3.1 3.1-1.4 3.1-3.1-1.4-3.1-3.1-3.1zm-797.4 0c-1.9 0-3.4 1.5-3.4 3.4s1.5 3.4 3.4 3.4 3.4-1.5 3.4-3.4-1.5-3.4-3.4-3.4zm-5.9 22.7c-1.4 0-2.6 1.2-2.6 2.6s1.2 2.6 2.6 2.6 2.6-1.2 2.6-2.6c0-1.5-1.2-2.6-2.6-2.6zm14.7 0c-.7 0-1.3.6-1.3 1.3s.6 1.3 1.3 1.3 1.3-.6 1.3-1.3-.6-1.3-1.3-1.3zm69.7-64.1c-1.6 0-2.8 1.3-2.8 2.8 0 1.6 1.3 2.8 2.8 2.8 1.6 0 2.8-1.3 2.8-2.8.1-1.5-1.2-2.8-2.8-2.8zm-152 128.2c-1.2 0-2.2 1-2.2 2.2s1 2.2 2.2 2.2 2.2-1 2.2-2.2-1-2.2-2.2-2.2zm73.4-4.2c-1.8 0-3.2 1.4-3.2 3.2s1.4 3.2 3.2 3.2 3.2-1.4 3.2-3.2-1.4-3.2-3.2-3.2zm-158.9-103.8c-1.6 0-2.9 1.3-2.9 2.9s1.3 2.9 2.9 2.9 2.9-1.3 2.9-2.9-1.3-2.9-2.9-2.9zm14 0c-1.1 0-1.9.9-1.9 1.9 0 1.1.9 1.9 1.9 1.9 1.1 0 1.9-.9 1.9-1.9.1-1.1-.8-1.9-1.9-1.9zm4.5 29.9c-1.4 0-2.5 1.1-2.5 2.5s1.1 2.5 2.5 2.5 2.5-1.1 2.5-2.5c0-1.3-1.1-2.5-2.5-2.5zm-333.1-160.1c-1.3 0-2.3 1-2.3 2.3s1 2.3 2.3 2.3 2.3-1 2.3-2.3c0-1.2-1-2.3-2.3-2.3zm15-20.1c-1.3 0-2.3 1-2.3 2.3s1 2.3 2.3 2.3 2.3-1 2.3-2.3-1-2.3-2.3-2.3zm19.7 24.8c-1.6 0-3 1.3-3 3 0 1.6 1.3 3 3 3s3-1.3 3-3-1.3-3-3-3zm75.3-20.2c-2.7 0-4.8 2.2-4.8 4.8s2.2 4.8 4.8 4.8 4.8-2.2 4.8-4.8-2.1-4.8-4.8-4.8zm-267 140.5c-1 0-1.8.8-1.8 1.8s.8 1.8 1.8 1.8 1.8-.8 1.8-1.8-.8-1.8-1.8-1.8zm9.2-13.4c-.6 0-1.2.5-1.2 1.2s.5 1.2 1.2 1.2 1.2-.5 1.2-1.2-.6-1.2-1.2-1.2zm83.2 43.9c-1.3 0-2.3 1-2.3 2.3s1 2.3 2.3 2.3 2.3-1 2.3-2.3-1-2.3-2.3-2.3zm-364.1-203c-1.6 0-2.8 1.3-2.8 2.8 0 1.6 1.3 2.8 2.8 2.8 1.6 0 2.8-1.3 2.8-2.8.1-1.5-1.2-2.8-2.8-2.8zm12.8 20.7c-1.2 0-2.2 1-2.2 2.2s1 2.2 2.2 2.2 2.2-1 2.2-2.2-1-2.2-2.2-2.2zm28.3-15c-1.4 0-2.6 1.2-2.6 2.6s1.2 2.6 2.6 2.6 2.6-1.2 2.6-2.6-1.2-2.6-2.6-2.6zm-51.7 49.4c-.8 0-1.5.7-1.5 1.5s.7 1.5 1.5 1.5 1.5-.7 1.5-1.5-.7-1.5-1.5-1.5zm27.1-2.9c-.8 0-1.5.7-1.5 1.5s.7 1.5 1.5 1.5 1.5-.7 1.5-1.5c0-.9-.7-1.5-1.5-1.5zm-201.1 108.4c-2.3 0-4.1 1.8-4.1 4.1s1.8 4.1 4.1 4.1 4.1-1.8 4.1-4.1-1.8-4.1-4.1-4.1zm-2.2-23.7c-1.1 0-1.9.9-1.9 1.9s.9 1.9 1.9 1.9c1.1 0 1.9-.9 1.9-1.9s-.8-1.9-1.9-1.9zm20.5 16c-1 0-1.8.8-1.8 1.8s.8 1.8 1.8 1.8 1.8-.8 1.8-1.8-.8-1.8-1.8-1.8zm-47.1 16c-1.5 0-2.7 1.2-2.7 2.7s1.2 2.7 2.7 2.7 2.7-1.2 2.7-2.7-1.2-2.7-2.7-2.7zm33.8 59.9c-1.6 0-3 1.3-3 3 0 1.6 1.3 3 3 3s3-1.3 3-3-1.4-3-3-3zm72.8 0c-1.6 0-3 1.3-3 3 0 1.6 1.3 3 3 3s3-1.3 3-3-1.3-3-3-3zm55.3 84.7c-1.1 0-1.9.9-1.9 1.9s.9 1.9 1.9 1.9c1.1 0 1.9-.9 1.9-1.9s-.8-1.9-1.9-1.9zm8.7-3.6c-1 0-1.8.8-1.8 1.8s.8 1.8 1.8 1.8 1.8-.8 1.8-1.8-.9-1.8-1.8-1.8zm65.4-75.1c-1 0-1.8.8-1.8 1.8s.8 1.8 1.8 1.8 1.8-.8 1.8-1.8c-.1-1-.9-1.8-1.8-1.8zm69.4 25.5c-1.3 0-2.3 1-2.3 2.3s1 2.3 2.3 2.3 2.3-1 2.3-2.3-1.1-2.3-2.3-2.3zm23.1-39.2c-.6 0-1.2.5-1.2 1.2 0 .6.5 1.2 1.2 1.2s1.2-.5 1.2-1.2c-.1-.7-.6-1.2-1.2-1.2zm21.3-147.8c-1.3 0-2.3 1-2.3 2.3s1 2.3 2.3 2.3 2.3-1 2.3-2.3c0-1.2-1-2.3-2.3-2.3zm16 14c-1.3 0-2.3 1-2.3 2.3s1 2.3 2.3 2.3 2.3-1 2.3-2.3-1-2.3-2.3-2.3zm348.8-11.6c-.8 0-1.5.7-1.5 1.5s.7 1.5 1.5 1.5 1.5-.7 1.5-1.5-.7-1.5-1.5-1.5zm86.3 234.2c-.9 0-1.5.7-1.5 1.5s.7 1.5 1.5 1.5 1.5-.7 1.5-1.5-.6-1.5-1.5-1.5zm15.3-8.3c-1.3 0-2.3 1-2.3 2.3s1 2.3 2.3 2.3 2.3-1 2.3-2.3c0-1.2-1-2.3-2.3-2.3zm11.3 38.3c-.8 0-1.5.7-1.5 1.5s.7 1.5 1.5 1.5 1.5-.7 1.5-1.5c0-.9-.7-1.5-1.5-1.5zm-21.7 0c-.4 0-.7.3-.7.7s.3.7.7.7.7-.3.7-.7-.3-.7-.7-.7zm105.5-84.2c-.8 0-1.4.6-1.4 1.4s.6 1.4 1.4 1.4 1.4-.6 1.4-1.4c.1-.8-.6-1.4-1.4-1.4zm234.4 113.6c-.7 0-1.3.6-1.3 1.3s.6 1.3 1.3 1.3 1.3-.6 1.3-1.3-.6-1.3-1.3-1.3zm25.6-7.7c-.9 0-1.5.7-1.5 1.5s.7 1.5 1.5 1.5c.9 0 1.5-.7 1.5-1.5s-.7-1.5-1.5-1.5zm78.5-76.9c-.9 0-1.6.7-1.6 1.6s.7 1.6 1.6 1.6 1.6-.7 1.6-1.6-.7-1.6-1.6-1.6zm4.1 19.3c-1.4 0-2.5 1.1-2.5 2.5s1.1 2.5 2.5 2.5 2.5-1.1 2.5-2.5c-.1-1.4-1.2-2.5-2.5-2.5zm-18.6 15.2c-.9 0-1.6.7-1.6 1.6s.7 1.6 1.6 1.6 1.6-.7 1.6-1.6-.7-1.6-1.6-1.6zm78-31.3c-1.4 0-2.5 1.1-2.5 2.5s1.1 2.5 2.5 2.5 2.5-1.1 2.5-2.5-1.1-2.5-2.5-2.5zm106 98.4c-.9 0-1.7.8-1.7 1.7s.8 1.7 1.7 1.7 1.7-.8 1.7-1.7-.8-1.7-1.7-1.7zm41.2-67.1c-.9 0-1.6.7-1.6 1.6s.7 1.6 1.6 1.6 1.6-.7 1.6-1.6-.7-1.6-1.6-1.6zm19-153.4c-1.1 0-1.9.9-1.9 1.9 0 1.1.9 1.9 1.9 1.9s1.9-.9 1.9-1.9-.9-1.9-1.9-1.9zm45.7-13.4c-1.1 0-1.9.9-1.9 1.9 0 1.1.9 1.9 1.9 1.9s1.9-.9 1.9-1.9c0-1.1-.8-1.9-1.9-1.9zm161.1-125c-.9 0-1.7.8-1.7 1.7s.8 1.7 1.7 1.7 1.7-.8 1.7-1.7c0-1-.7-1.7-1.7-1.7zm12.4 14.4c-1.5 0-2.7 1.2-2.7 2.7s1.2 2.7 2.7 2.7 2.7-1.2 2.7-2.7-1.2-2.7-2.7-2.7zm-28.5 21.2c-2 0-3.6 1.6-3.6 3.6s1.6 3.6 3.6 3.6 3.6-1.6 3.6-3.6-1.6-3.6-3.6-3.6zm63.8-45.4c-1.9 0-3.4 1.5-3.4 3.4s1.5 3.4 3.4 3.4 3.4-1.5 3.4-3.4c-.1-1.9-1.6-3.4-3.4-3.4zm74.4 91.9c-3 0-5.4 2.4-5.4 5.4s2.4 5.4 5.4 5.4 5.4-2.4 5.4-5.4-2.4-5.4-5.4-5.4zm-31 42.9c-1.9 0-3.4 1.5-3.4 3.4s1.5 3.4 3.4 3.4 3.4-1.5 3.4-3.4-1.6-3.4-3.4-3.4zm61.9-64.1c-1.6 0-2.8 1.3-2.8 2.8s1.3 2.8 2.8 2.8c1.6 0 2.8-1.3 2.8-2.8s-1.2-2.8-2.8-2.8zm-562.9-78c-1 0-1.8.8-1.8 1.8s.8 1.8 1.8 1.8 1.8-.8 1.8-1.8-.8-1.8-1.8-1.8zm13.3 10.6c-.9 0-1.7.8-1.7 1.7s.8 1.7 1.7 1.7 1.7-.8 1.7-1.7c-.1-.9-.8-1.7-1.7-1.7zm-189-8.8c-1.5 0-2.8 1.2-2.8 2.8s1.2 2.8 2.8 2.8 2.8-1.2 2.8-2.8-1.3-2.8-2.8-2.8zm14.9 16.3c-1.8 0-3.2 1.4-3.2 3.2s1.4 3.2 3.2 3.2 3.2-1.4 3.2-3.2-1.4-3.2-3.2-3.2zm-185.6-16.3c-1.4 0-2.5 1.1-2.5 2.5s1.1 2.5 2.5 2.5 2.5-1.1 2.5-2.5c0-1.3-1.1-2.5-2.5-2.5zm4.1 16.3c-.9 0-1.6.7-1.6 1.6s.7 1.6 1.6 1.6 1.6-.7 1.6-1.6-.7-1.6-1.6-1.6zm-49.6 26.7c-.8 0-1.5.7-1.5 1.5s.7 1.5 1.5 1.5 1.5-.7 1.5-1.5-.6-1.5-1.5-1.5zm87 15.1c-1.5 0-2.7 1.2-2.7 2.7s1.2 2.7 2.7 2.7 2.7-1.2 2.7-2.7-1.2-2.7-2.7-2.7z" fill-rule="evenodd"/><path clip-rule="evenodd" d="m785.5 1345.4c0 1.6-1.3 2.9-2.9 2.9s-2.9-1.3-2.9-2.9 1.3-2.9 2.9-2.9c1.6.1 2.9 1.4 2.9 2.9zm198.8-480.1c-3.2 0-5.7 2.6-5.7 5.7 0 3.2 2.6 5.7 5.7 5.7s5.7-2.6 5.7-5.7c0-3.2-2.5-5.7-5.7-5.7zm237.3-82.5c-2.1 0-3.9 1.7-3.9 3.9s1.7 3.9 3.9 3.9c2.1 0 3.9-1.7 3.9-3.9s-1.7-3.9-3.9-3.9zm-447.9 6c-1-.7-2.3-.5-3 .5s-.5 2.3.5 3 2.3.5 3-.5.5-2.3-.5-3zm-18.6 157.6c-2.4-.6-4.7.9-5.3 3.2-.6 2.4.9 4.7 3.2 5.3s4.7-.9 5.3-3.2-.8-4.7-3.2-5.3zm-101.8-19.2c-1.2-.3-2.5.5-2.8 1.7s.5 2.5 1.7 2.8 2.5-.5 2.8-1.7c.3-1.3-.4-2.5-1.7-2.8zm120.6-355.2c-1.4 0-2.6 1.2-2.6 2.6s1.2 2.6 2.6 2.6 2.6-1.2 2.6-2.6-1.1-2.6-2.6-2.6zm14.8 5.3c-.6 0-1.1.5-1.1 1.1s.5 1.1 1.1 1.1 1.1-.5 1.1-1.1-.5-1.1-1.1-1.1zm102.6 37.4c0 .7.6 1.4 1.4 1.4s1.4-.6 1.4-1.4-.6-1.4-1.4-1.4-1.4.7-1.4 1.4zm-21.1 10.5c0 2.7 2.1 4.8 4.8 4.8s4.8-2.1 4.8-4.8-2.1-4.8-4.8-4.8c-2.6 0-4.8 2.2-4.8 4.8zm-34.6 39.7c0 2 1.6 3.5 3.5 3.5 2 0 3.5-1.6 3.5-3.5 0-2-1.6-3.5-3.5-3.5-1.9-.1-3.5 1.5-3.5 3.5zm273.3-229.1c-2 0-3.5 1.6-3.5 3.5s1.6 3.5 3.5 3.5c2 0 3.5-1.6 3.5-3.5s-1.5-3.5-3.5-3.5zm2.6 105.8c-2 0-3.5 1.6-3.5 3.5 0 2 1.6 3.5 3.5 3.5s3.5-1.6 3.5-3.5c.1-1.9-1.5-3.5-3.5-3.5zm-37.8 63.9c-1.3 0-2.4 1.1-2.4 2.4s1.1 2.4 2.4 2.4 2.4-1.1 2.4-2.4c0-1.4-1.1-2.4-2.4-2.4zm-385.2-102.7c-1.3 0-2.3 1-2.3 2.3s1 2.3 2.3 2.3 2.3-1 2.3-2.3-1-2.3-2.3-2.3zm-131.7 225.3c0 1.4 1.1 2.5 2.5 2.5s2.5-1.1 2.5-2.5-1.1-2.5-2.5-2.5c-1.3 0-2.5 1.1-2.5 2.5zm-82.1 66.6c-1.3 0-2.3 1-2.3 2.3s1 2.3 2.3 2.3 2.3-1 2.3-2.3c0-1.2-1.1-2.3-2.3-2.3zm-68.6 367.3c-1.8 0-3.3 1.5-3.3 3.3s1.5 3.3 3.3 3.3 3.3-1.5 3.3-3.3-1.5-3.3-3.3-3.3zm286.2 41.4c-1.3 0-2.3 1-2.3 2.3s1 2.3 2.3 2.3 2.3-1 2.3-2.3-1-2.3-2.3-2.3zm-204.3-154.7c-1.8 0-3.3 1.5-3.3 3.3s1.5 3.3 3.3 3.3 3.3-1.5 3.3-3.3-1.5-3.3-3.3-3.3zm72.8-5.9c-2.2 0-4 1.8-4 4s1.8 4 4 4 4-1.8 4-4-1.8-4-4-4zm-336.4-532.8c-1.7 0-3 1.4-3 3 0 1.7 1.4 3 3 3s3-1.4 3-3c0-1.7-1.3-3-3-3zm76.4-75.1c-2.8 0-5 2.2-5 5s2.2 5 5 5 5-2.2 5-5-2.2-5-5-5zm79.1 62.9c-1.6 0-2.9 1.3-2.9 2.9s1.3 2.9 2.9 2.9 2.9-1.3 2.9-2.9-1.3-2.9-2.9-2.9zm83.1 28.8c-2.8 0-5 2.2-5 5s2.2 5 5 5 5-2.2 5-5-2.3-5-5-5zm-262.7 354.5c-1.3 0-2.3 1-2.3 2.3s1 2.3 2.3 2.3 2.3-1 2.3-2.3-1-2.3-2.3-2.3zm-47.7 81.5c-1.1 0-1.9.9-1.9 1.9s.9 1.9 1.9 1.9c1.1 0 1.9-.9 1.9-1.9s-.8-1.9-1.9-1.9zm7.1 47.1c-1.6 0-2.9 1.3-2.9 2.9s1.3 2.9 2.9 2.9 2.9-1.3 2.9-2.9-1.3-2.9-2.9-2.9zm-150.4-215c-.7 0-1.2.5-1.2 1.2s.5 1.2 1.2 1.2 1.2-.5 1.2-1.2c0-.6-.5-1.2-1.2-1.2zm78.3-53.6c-.8 0-1.4.6-1.4 1.4s.6 1.4 1.4 1.4 1.4-.6 1.4-1.4-.6-1.4-1.4-1.4zm57.1-31.2c-2.5 0-4.4 2-4.4 4.4 0 2.5 2 4.4 4.4 4.4s4.4-2 4.4-4.4-2-4.4-4.4-4.4zm56.3 101.1c-2.2 0-3.9 1.7-3.9 3.9s1.7 3.9 3.9 3.9 3.9-1.7 3.9-3.9-1.8-3.9-3.9-3.9zm708.3 269.4c-2.1 0-3.8 1.7-3.8 3.8s1.7 3.8 3.8 3.8 3.8-1.7 3.8-3.8-1.7-3.8-3.8-3.8zm203.2 122.6c-2 0-3.6 1.6-3.6 3.6s1.6 3.6 3.6 3.6 3.6-1.6 3.6-3.6-1.6-3.6-3.6-3.6zm426.1 185.9c-2.4 0-4.4 2-4.4 4.4s2 4.4 4.4 4.4 4.4-2 4.4-4.4-1.9-4.4-4.4-4.4zm-428.5 69.7c-1.8 0-3.3 1.5-3.3 3.3s1.5 3.3 3.3 3.3 3.3-1.5 3.3-3.3c.1-1.8-1.4-3.3-3.3-3.3zm133.8-15.2c-1.3 0-2.3 1-2.3 2.3s1 2.3 2.3 2.3 2.3-1 2.3-2.3-1-2.3-2.3-2.3zm-146-74.3c-2.7 0-4.9 2.2-4.9 4.9s2.2 4.9 4.9 4.9 4.9-2.2 4.9-4.9-2.2-4.9-4.9-4.9zm422.8-255c-1.4 0-2.5 1.1-2.5 2.5s1.1 2.5 2.5 2.5 2.5-1.1 2.5-2.5c-.1-1.4-1.2-2.5-2.5-2.5zm70.8-25.7c-1.5 0-2.8 1.2-2.8 2.8 0 1.5 1.2 2.8 2.8 2.8 1.5 0 2.8-1.2 2.8-2.8s-1.2-2.8-2.8-2.8zm85.8 53.5c-1.2 0-2.2 1-2.2 2.2s1 2.2 2.2 2.2 2.2-1 2.2-2.2c-.1-1.2-1.1-2.2-2.2-2.2zm5.6-188.1c-1.1 0-2 .9-2 2s.9 2 2 2 2-.9 2-2-.9-2-2-2zm20 15.4c-1.4 0-2.5 1.1-2.5 2.5s1.1 2.5 2.5 2.5 2.5-1.1 2.5-2.5-1.2-2.5-2.5-2.5zm-7.8-195.6c0-1.1-.9-2-2-2s-2 .9-2 2 .9 2 2 2 2-.9 2-2zm-83.2 111.7c-1.6 0-2.9 1.3-2.9 2.9s1.3 2.9 2.9 2.9 2.9-1.3 2.9-2.9c-.1-1.6-1.3-2.9-2.9-2.9zm-476.9-176.8c-1.8 0-3.2 1.4-3.2 3.2s1.4 3.2 3.2 3.2 3.2-1.4 3.2-3.2-1.4-3.2-3.2-3.2zm245-48.9c-1.9 0-3.5 1.6-3.5 3.5s1.6 3.5 3.5 3.5 3.5-1.6 3.5-3.5c0-2-1.6-3.5-3.5-3.5zm18.1-51.7c-1.5 0-2.7 1.2-2.7 2.7s1.2 2.7 2.7 2.7 2.7-1.2 2.7-2.7-1.2-2.7-2.7-2.7zm-46.8-30.4c-1.8 0-3.3 1.5-3.3 3.3s1.5 3.3 3.3 3.3 3.3-1.5 3.3-3.3-1.5-3.3-3.3-3.3zm303.7-76.6c-1.4 0-2.6 1.2-2.6 2.6s1.2 2.6 2.6 2.6 2.6-1.2 2.6-2.6c0-1.5-1.2-2.6-2.6-2.6zm32.1 14.6c-1.2 0-2.2 1-2.2 2.2s1 2.2 2.2 2.2 2.2-1 2.2-2.2c.1-1.1-1-2.2-2.2-2.2zm-144.7-63.8c-2 0-3.6 1.6-3.6 3.6s1.6 3.6 3.6 3.6 3.6-1.6 3.6-3.6-1.6-3.6-3.6-3.6zm-152.4 416.9c-1.4 0-2.6 1.2-2.6 2.6s1.2 2.6 2.6 2.6 2.6-1.2 2.6-2.6-1.2-2.6-2.6-2.6zm-829.7-438.3c-1.6 0-2.9 1.3-2.9 2.9s1.3 2.9 2.9 2.9 2.9-1.3 2.9-2.9-1.3-2.9-2.9-2.9zm66.5-13.7c-1.7 0-3.2 1.4-3.2 3.2s1.4 3.2 3.2 3.2c1.7 0 3.2-1.4 3.2-3.2s-1.5-3.2-3.2-3.2zm130.8 9.8c-1.4 0-2.5 1.1-2.5 2.5s1.1 2.5 2.5 2.5 2.5-1.1 2.5-2.5c.1-1.4-1.1-2.5-2.5-2.5zm34.3 5.1c-1.2 0-2.2 1-2.2 2.2s1 2.2 2.2 2.2 2.2-1 2.2-2.2c0-1.3-1-2.2-2.2-2.2zm-769.3 137.9c-.9 0-1.7.8-1.7 1.7s.8 1.7 1.7 1.7 1.7-.8 1.7-1.7-.8-1.7-1.7-1.7zm47.6 34.7c-1 0-1.8.8-1.8 1.8s.8 1.8 1.8 1.8 1.8-.8 1.8-1.8-.8-1.8-1.8-1.8zm33.7-107.6c-1.1 0-2 .9-2 2s.9 2 2 2 2-.9 2-2-.9-2-2-2zm83.1-79.1c-.9 0-1.6.7-1.6 1.6s.7 1.6 1.6 1.6 1.6-.7 1.6-1.6-.7-1.6-1.6-1.6zm86.5 485.6c-1.2 0-2.2 1-2.2 2.2s1 2.2 2.2 2.2 2.2-1 2.2-2.2-1-2.2-2.2-2.2zm-265.9 367.4c-1.2 0-2.1.9-2.1 2.1s.9 2.1 2.1 2.1 2.1-.9 2.1-2.1-1-2.1-2.1-2.1zm535.6 47.8c-1.8 0-3.2 1.5-3.2 3.2s1.5 3.2 3.2 3.2 3.2-1.5 3.2-3.2-1.4-3.2-3.2-3.2zm-286 147c-1.9 0-3.4 1.5-3.4 3.4s1.5 3.4 3.4 3.4 3.4-1.5 3.4-3.4-1.6-3.4-3.4-3.4zm150.4-6.3c-1.7 0-3.1 1.4-3.1 3.1s1.4 3.1 3.1 3.1 3.1-1.4 3.1-3.1-1.4-3.1-3.1-3.1zm1521.1-802.8c-1 0-1.8.8-1.8 1.8s.8 1.8 1.8 1.8 1.8-.8 1.8-1.8c0-.9-.8-1.8-1.8-1.8zm-89-210.1c-1.2 0-2.2 1-2.2 2.2s1 2.2 2.2 2.2 2.2-1 2.2-2.2-1-2.2-2.2-2.2zm-66.5 44.7c-1.6 0-2.8 1.3-2.8 2.8s1.3 2.8 2.8 2.8 2.8-1.3 2.8-2.8-1.2-2.8-2.8-2.8zm36.6 249.6c-1.3 0-2.4 1.1-2.4 2.4s1.1 2.4 2.4 2.4 2.4-1.1 2.4-2.4-1-2.4-2.4-2.4zm131.3 63.2c-1.4 0-2.5 1.1-2.5 2.5s1.1 2.5 2.5 2.5 2.5-1.1 2.5-2.5-1.1-2.5-2.5-2.5zm-182.9 113.6c-1.6 0-2.8 1.3-2.8 2.8s1.3 2.8 2.8 2.8 2.8-1.3 2.8-2.8-1.2-2.8-2.8-2.8zm210-21.8c-2.6 0-4.6 2.1-4.6 4.6 0 2.6 2.1 4.6 4.6 4.6s4.6-2.1 4.6-4.6-2-4.6-4.6-4.6zm-159.6-40.8c-1.5 0-2.6 1.2-2.6 2.6 0 1.5 1.2 2.6 2.6 2.6s2.6-1.2 2.6-2.6-1.2-2.6-2.6-2.6zm105.6 67.6c-2.5 0-4.5 2-4.5 4.5s2 4.5 4.5 4.5 4.5-2 4.5-4.5-2-4.5-4.5-4.5zm-774.6 557.9c-1.2 0-2.2 1-2.2 2.2s1 2.2 2.2 2.2 2.2-1 2.2-2.2-1-2.2-2.2-2.2zm-13.6 15c-.9 0-1.6.7-1.6 1.6s.7 1.6 1.6 1.6 1.6-.7 1.6-1.6-.7-1.6-1.6-1.6zm12.8 234.7c-1.3 0-2.3 1-2.3 2.3s1 2.3 2.3 2.3 2.3-1 2.3-2.3-1.1-2.3-2.3-2.3zm13.1-10.5c-.9 0-1.6.7-1.6 1.6s.7 1.6 1.6 1.6 1.6-.7 1.6-1.6-.7-1.6-1.6-1.6zm-45.1 30.6c-1.7 0-3 1.3-3 3s1.3 3 3 3 3-1.3 3-3-1.4-3-3-3zm21 33.8c-1.4 0-2.5 1.1-2.5 2.5s1.1 2.5 2.5 2.5 2.5-1.1 2.5-2.5-1.1-2.5-2.5-2.5zm-80.9 6.7c-1.6 0-2.8 1.3-2.8 2.8 0 1.6 1.3 2.8 2.8 2.8 1.6 0 2.8-1.3 2.8-2.8.1-1.6-1.2-2.8-2.8-2.8zm126.1 127.5c-.8 0-1.5.7-1.5 1.5s.7 1.5 1.5 1.5 1.5-.7 1.5-1.5-.7-1.5-1.5-1.5zm14.1-19.4c-1.7 0-3 1.3-3 3s1.3 3 3 3 3-1.3 3-3c0-1.6-1.4-3-3-3zm-38.9 27.8c-2.5 0-4.6 2-4.6 4.6s2 4.6 4.6 4.6 4.6-2 4.6-4.6-2.1-4.6-4.6-4.6zm66.6 25c-1.6 0-2.8 1.3-2.8 2.8 0 1.6 1.3 2.8 2.8 2.8 1.6 0 2.8-1.3 2.8-2.8.1-1.5-1.2-2.8-2.8-2.8zm-321.6-88.7c-1.4 0-2.5 1.1-2.5 2.5s1.1 2.5 2.5 2.5 2.5-1.1 2.5-2.5-1.1-2.5-2.5-2.5zm9 19.5c-.6 0-1 .5-1 1s.5 1 1 1c.6 0 1-.5 1-1s-.5-1-1-1zm-110.7 17.7c-1.7 0-3.1 1.4-3.1 3.1s1.4 3.1 3.1 3.1 3.1-1.4 3.1-3.1c0-1.8-1.4-3.1-3.1-3.1zm-93.8-139.4c-1.6 0-2.8 1.3-2.8 2.8 0 1.6 1.3 2.8 2.8 2.8s2.8-1.3 2.8-2.8c.1-1.5-1.2-2.8-2.8-2.8zm8.7 11.7c-1.1 0-1.9.9-1.9 1.9s.9 1.9 1.9 1.9 1.9-.9 1.9-1.9-.8-1.9-1.9-1.9zm-121.9 29c-1.3 0-2.3 1-2.3 2.3s1 2.3 2.3 2.3 2.3-1 2.3-2.3c0-1.2-1-2.3-2.3-2.3zm-62 2.4c-1.6 0-2.9 1.3-2.9 2.9s1.3 2.9 2.9 2.9 2.9-1.3 2.9-2.9-1.3-2.9-2.9-2.9zm6.7 13.8c-2.1 0-3.8 1.7-3.8 3.8s1.7 3.8 3.8 3.8 3.8-1.7 3.8-3.8-1.7-3.8-3.8-3.8zm-40.1 40.6c-1.7 0-3.1 1.4-3.1 3.1s1.4 3.1 3.1 3.1 3.1-1.4 3.1-3.1-1.4-3.1-3.1-3.1zm-154.4 8.9c-1.4 0-2.5 1.1-2.5 2.5s1.1 2.5 2.5 2.5 2.5-1.1 2.5-2.5-1.1-2.5-2.5-2.5zm8 11.4c-1.3 0-2.4 1.1-2.4 2.4s1.1 2.4 2.4 2.4 2.4-1.1 2.4-2.4-1-2.4-2.4-2.4zm-209.2-54.6c-.8 0-1.5.7-1.5 1.5s.7 1.5 1.5 1.5 1.5-.7 1.5-1.5-.7-1.5-1.5-1.5zm-25.3 35.7c-1.1 0-2 .9-2 2s.9 2 2 2 2-.9 2-2-.9-2-2-2zm15.2 7.5c-1.4 0-2.5 1.1-2.5 2.5s1.1 2.5 2.5 2.5 2.5-1.1 2.5-2.5-1.1-2.5-2.5-2.5zm-72 56.3c-.9 0-1.6.7-1.6 1.6s.7 1.6 1.6 1.6 1.6-.7 1.6-1.6-.7-1.6-1.6-1.6zm18.9 11.4c-1 0-1.9.8-1.9 1.9s.8 1.9 1.9 1.9 1.9-.8 1.9-1.9-.9-1.9-1.9-1.9zm-7.4 24c-1.4 0-2.5 1.1-2.5 2.5s1.1 2.5 2.5 2.5 2.5-1.1 2.5-2.5-1.1-2.5-2.5-2.5zm284-294.9c-1.2 0-2.1.9-2.1 2.1s.9 2.1 2.1 2.1 2.1-.9 2.1-2.1-1-2.1-2.1-2.1zm43.9-134c-2.2 0-4 1.8-4 4s1.8 4 4 4 4-1.8 4-4-1.8-4-4-4zm13.2 15c-1.6 0-2.8 1.3-2.8 2.8 0 1.6 1.3 2.8 2.8 2.8s2.8-1.3 2.8-2.8c0-1.6-1.2-2.8-2.8-2.8zm64-33.6c-1.5 0-2.7 1.2-2.7 2.7s1.2 2.7 2.7 2.7 2.7-1.2 2.7-2.7-1.2-2.7-2.7-2.7zm87.4-130.1c-1.1 0-2 .9-2 2s.9 2 2 2 2-.9 2-2-.8-2-2-2zm-50.2 22.2c-1.1 0-2.1.9-2.1 2.1s.9 2.1 2.1 2.1c1.1 0 2.1-.9 2.1-2.1s-1-2.1-2.1-2.1zm12.6 19.5c-2.2 0-3.9 1.8-3.9 3.9 0 2.2 1.8 3.9 3.9 3.9s3.9-1.8 3.9-3.9c0-2.2-1.8-3.9-3.9-3.9zm-132.5-118.7c-1 0-1.9.8-1.9 1.9s.8 1.9 1.9 1.9c1 0 1.9-.8 1.9-1.9s-.8-1.9-1.9-1.9zm15.4 13.1c-2.1 0-3.8 1.7-3.8 3.8s1.7 3.8 3.8 3.8 3.8-1.7 3.8-3.8c-.1-2.1-1.8-3.8-3.8-3.8zm9.7-22.1c-1.6 0-2.9 1.3-2.9 2.9s1.3 2.9 2.9 2.9 2.9-1.3 2.9-2.9-1.3-2.9-2.9-2.9zm-192.8-73.7c-1.4 0-2.6 1.1-2.6 2.6s1.1 2.6 2.6 2.6 2.6-1.1 2.6-2.6-1.2-2.6-2.6-2.6zm19.1-5.8c-.9 0-1.6.7-1.6 1.6s.7 1.6 1.6 1.6 1.6-.7 1.6-1.6-.8-1.6-1.6-1.6zm10.6-12.3c-.6 0-1.1.5-1.1 1.1s.5 1.1 1.1 1.1 1.1-.5 1.1-1.1-.5-1.1-1.1-1.1zm78.4 18.1c-.7 0-1.3.6-1.3 1.3s.6 1.3 1.3 1.3 1.3-.6 1.3-1.3-.6-1.3-1.3-1.3zm10.9-45.3c-1.3 0-2.3 1-2.3 2.3s1 2.3 2.3 2.3 2.3-1 2.3-2.3-1-2.3-2.3-2.3zm308.3-25c-1 0-1.9.8-1.9 1.9 0 1 .8 1.9 1.9 1.9 1 0 1.9-.8 1.9-1.9s-.9-1.9-1.9-1.9zm24.8-18.2c-.4 0-.7.3-.7.7s.3.7.7.7.7-.3.7-.7c.1-.4-.3-.7-.7-.7zm4.6 9.4c-.7 0-1.2.6-1.2 1.2 0 .7.6 1.2 1.2 1.2s1.2-.6 1.2-1.2-.5-1.2-1.2-1.2zm252.9-128.4c-.8 0-1.5.7-1.5 1.5s.7 1.5 1.5 1.5 1.5-.7 1.5-1.5-.7-1.5-1.5-1.5zm272.2-350.5c-1 0-1.7.8-1.7 1.7 0 1 .8 1.7 1.7 1.7 1 0 1.7-.8 1.7-1.7 0-1-.8-1.7-1.7-1.7zm211.8-226.5c-1 0-1.7.8-1.7 1.7s.8 1.7 1.7 1.7 1.7-.8 1.7-1.7-.7-1.7-1.7-1.7zm4.5-15.9c-1.5 0-2.8 1.2-2.8 2.8 0 1.5 1.2 2.8 2.8 2.8 1.5 0 2.8-1.2 2.8-2.8s-1.2-2.8-2.8-2.8zm54.2 24c-1.2 0-2.2 1-2.2 2.2s1 2.2 2.2 2.2 2.2-1 2.2-2.2-1-2.2-2.2-2.2zm181.9-128c-1.2 0-2.2 1-2.2 2.2s1 2.2 2.2 2.2 2.2-1 2.2-2.2c.1-1.2-.9-2.2-2.2-2.2zm46.7-25.5c-.9 0-1.5.7-1.5 1.5 0 .9.7 1.5 1.5 1.5.9 0 1.5-.7 1.5-1.5.1-.8-.6-1.5-1.5-1.5zm7.7-104.3c-1 0-1.7.8-1.7 1.7s.8 1.7 1.7 1.7 1.7-.8 1.7-1.7-.8-1.7-1.7-1.7zm22.2-22.3c-1.3 0-2.4 1.1-2.4 2.4s1.1 2.4 2.4 2.4 2.4-1.1 2.4-2.4-1-2.4-2.4-2.4zm12.3 22.3c-1.8 0-3.3 1.5-3.3 3.3s1.5 3.3 3.3 3.3 3.3-1.5 3.3-3.3-1.5-3.3-3.3-3.3zm-329.7-138.8c-1 0-1.8.8-1.8 1.8s.8 1.8 1.8 1.8 1.8-.8 1.8-1.8-.8-1.8-1.8-1.8zm-3.1 22.5c-.7 0-1.3.6-1.3 1.3s.6 1.3 1.3 1.3 1.3-.6 1.3-1.3-.6-1.3-1.3-1.3zm29.2-1.8c-1.7 0-3 1.3-3 3s1.3 3 3 3 3-1.3 3-3-1.4-3-3-3z" fill-rule="evenodd"/><path d="m262.3 1028.6c83.7-14.9 172.3-23.2 263.5-24.9 232.1-4.1 481.7 34.8 742 115.7 154.6 48.1 314.6 111.7 475.8 189 82.7 39.7 166.6 83.5 251.2 131v-.9c-84.5-47.5-168.3-91.2-250.9-130.8-161.2-77.4-321.3-141-475.9-189.1-260.4-81-510.1-119.9-742.3-115.8-91.2 1.6-179.9 10-263.6 24.9-67 11.9-130.9 28-190 47.7-28.4 9.5-52.9 18.9-73.5 27.6v.8c20.7-8.7 45.3-18.2 73.8-27.7 59.1-19.6 123-35.6 189.9-47.5z"/><path d="m243.7 964.1c81.9-25.7 169.3-45.5 259.6-58.9 230-34.2 480.7-27.8 745.1 19 157 27.8 320.6 70.4 486.3 126.5 85.3 28.9 172.2 61.8 260.1 98.3v-.8c-87.8-36.5-174.6-69.3-259.9-98.2-165.7-56.2-329.4-98.7-486.4-126.6-264.5-46.9-515.2-53.3-745.3-19-90.4 13.5-177.8 33.3-259.8 59-65.6 20.5-127.8 44.8-185 72.2-22.5 10.8-42.4 21.2-59.8 30.8v.9c17.5-9.7 37.5-20.2 60.2-31 57.2-27.4 119.4-51.6 184.9-72.2z"/><path d="m218.7 901.7c79.4-35.7 164.5-66.4 253-91 186.3-51.9 388.3-78.1 602.3-78.1 44.9 0 90.4 1.2 136.4 3.5 157.2 7.9 322 29.6 489.7 64.5 96.2 20 194.7 44.7 294.6 73.7v-.8c-99.9-29-198.3-53.6-294.5-73.7-167.8-34.9-332.6-56.6-489.9-64.5-264.9-13.3-513.5 11.8-739 74.6-88.6 24.7-173.7 55.3-253.1 91.1-63.5 28.6-123.5 60.5-178.3 94.8-15 9.4-28.8 18.5-41.5 27.1v.9c12.7-8.7 26.7-17.9 41.9-27.5 55-34.1 114.9-66 178.4-94.6z"/><circle clip-rule="evenodd" cx="1400.4" cy="1164" fill-rule="evenodd" r="4.9"/><circle clip-rule="evenodd" cx="1764.8" cy="1320.1" fill-rule="evenodd" r="18.6"/><circle clip-rule="evenodd" cx="400.7" cy="831.6" fill-rule="evenodd" r="12.6"/><circle clip-rule="evenodd" cx="634.6" cy="890.9" fill-rule="evenodd" r="8.8"/><circle clip-rule="evenodd" cx="1049.8" cy="1061.4" fill-rule="evenodd" r="10.4"/><circle clip-rule="evenodd" cx="1341.6" cy="745" fill-rule="evenodd" r="17.9"/><circle clip-rule="evenodd" cx="1614.5" cy="1012.9" fill-rule="evenodd" r="15.8"/></g></svg>